<?xml version="1.0" encoding="UTF-8"?>
<svg id="Capa_1" data-name="Capa 1" xmlns="http://www.w3.org/2000/svg" version="1.1" viewBox="0 0 800 800">
  <defs>
    <style>
      .cls-1 {
        fill: #636363;
        stroke-width: 0px;
      }
    </style>
  </defs>
  <path class="cls-1" d="M799.9,650.6c0-.1,0-.2,0-.4,0-.4-.1-.8-.2-1.2,0-.1,0-.2,0-.4-.1-.5-.3-.9-.4-1.3,0,0,0,0,0-.1-.2-.5-.4-1-.7-1.4,0,0,0,0,0,0L461.3,57.1c0-.1-.1-.2-.2-.3-.1-.2-.3-.5-.4-.7-.1-.2-.2-.3-.4-.5-.1-.2-.3-.3-.4-.5-.1-.2-.3-.3-.5-.5-.1-.1-.2-.3-.4-.4-.2-.2-.4-.3-.5-.5-.1-.1-.3-.2-.4-.3-.2-.1-.4-.3-.6-.4-.2-.1-.3-.2-.5-.3-.2-.1-.3-.2-.5-.3-.2-.1-.4-.2-.6-.3-.2,0-.3-.2-.5-.2-.2-.1-.5-.2-.7-.3-.1,0-.3-.1-.4-.2-.2,0-.5-.2-.7-.2-.2,0-.3,0-.5-.1-.2,0-.5-.1-.7-.2-.2,0-.4,0-.6,0-.2,0-.4,0-.7,0-.2,0-.5,0-.7,0-.1,0-.3,0-.4,0h-97.4c0,0-.1,0-.2,0-.4,0-.9,0-1.3,0-.1,0-.2,0-.3,0-1,.1-2,.4-3,.8-.1,0-.2,0-.3.1-.4.2-.8.4-1.1.6,0,0-.2,0-.2.1-.9.5-1.7,1.2-2.5,1.9,0,0-.2.2-.2.3-.3.3-.5.6-.8.9,0,.1-.2.2-.3.3-.3.4-.6.8-.9,1.3,0,0,0,0,0,0,0,0,0,0,0,0L1.7,645.7c-2.3,4-2.3,8.9,0,12.9l48.7,84.4s0,0,0,0c.3.5.6.9.9,1.3t0,0c.3.4.7.8,1,1.2,0,0,.2.2.2.2.3.3.6.6,1,.8,0,0,.2.1.2.2.4.3.8.6,1.3.9.5.3.9.5,1.4.7,0,0,0,0,.1,0,1.6.7,3.3,1,4.9,1s0,0,0,0h676.7c4.6,0,8.9-2.5,11.2-6.5l48.7-84.4s0,0,0,0c.3-.5.5-.9.7-1.4,0,0,0,0,0,0,.2-.4.3-.9.5-1.4,0-.1,0-.3,0-.4,0-.4.2-.8.2-1.2,0-.1,0-.3,0-.4,0-.5,0-1,0-1.5,0,0,0,0,0,0h0c0-.5,0-1,0-1.5ZM61.6,710.7l-33.8-58.6L352.7,89.3l268.8,465.6h-67.6l-190-329.1s0,0,0-.1c-.1-.2-.3-.5-.4-.7,0-.1-.2-.3-.3-.4-.1-.2-.3-.4-.5-.6-.1-.1-.2-.3-.4-.4-.1-.2-.3-.3-.4-.4-.2-.2-.3-.3-.5-.5-.1-.1-.3-.2-.4-.3-.2-.2-.4-.3-.6-.5-.1,0-.2-.2-.4-.2-.2-.2-.5-.3-.7-.5,0,0,0,0-.1,0-.1,0-.2-.1-.3-.2-.2-.1-.5-.2-.7-.4-.2,0-.4-.2-.6-.2-.2,0-.4-.2-.6-.2-.2,0-.4-.1-.7-.2-.2,0-.3,0-.5-.1-.2,0-.5-.1-.7-.2-.2,0-.3,0-.5,0-.2,0-.5,0-.7,0-.2,0-.4,0-.5,0-.2,0-.4,0-.7,0s-.4,0-.6,0c-.2,0-.4,0-.6,0-.2,0-.4,0-.7,0-.2,0-.4,0-.6,0-.2,0-.5,0-.7.1-.2,0-.4.1-.6.2-.2,0-.4.1-.6.2-.2,0-.4.2-.6.2-.2,0-.3.1-.5.2-.2.1-.5.2-.7.4,0,0-.2,0-.3.1,0,0,0,0-.1,0-.3.1-.5.3-.7.5-.1,0-.2.1-.3.2-.2.2-.4.3-.6.5-.1,0-.2.2-.4.3-.2.2-.3.3-.5.5-.1.1-.3.3-.4.4-.1.1-.2.3-.4.4-.2.2-.3.4-.5.6,0,.1-.2.3-.3.4-.2.2-.3.5-.4.7,0,0,0,0,0,.1L61.6,710.7ZM524.1,554.9h-245.4l122.7-212.5,122.7,212.5ZM730.9,723.6H84l268.8-465.6,33.8,58.5-190,329.1c-1.1,2-1.7,4.2-1.7,6.5,0,7.1,5.8,12.9,12.9,12.9h85.4c7.1,0,12.9-5.8,12.9-12.9s-5.8-12.9-12.9-12.9h-63l33.8-58.5h282.6s0,0,0,0,0,0,0,0h89.9l33.8,58.5h-325.5c-7.1,0-12.9,5.8-12.9,12.9s5.8,12.9,12.9,12.9h347.8s0,0,0,0,0,0,0,0h72.1l-33.8,58.5ZM700,639.2L375.1,76.4h67.6l322.2,562.8h-64.8Z"/>
</svg>