<?xml version="1.0" encoding="UTF-8"?>
<svg id="Layer_2" data-name="Layer 2" xmlns="http://www.w3.org/2000/svg" viewBox="0 0 162.74 162.75">
  <defs>
    <style>
      .cls-1 {
        fill: #58595b;
      }

      .cls-1, .cls-2, .cls-3, .cls-4, .cls-5, .cls-6, .cls-7 {
        stroke-width: 0px;
      }

      .cls-2 {
        fill: #f2a691;
      }

      .cls-3 {
        fill: #414042;
      }

      .cls-4 {
        fill: #dea8a3;
      }

      .cls-5 {
        fill: #97aad7;
      }

      .cls-6 {
        fill: #c8a9b3;
      }

      .cls-7 {
        fill: #b1aac4;
      }
    </style>
  </defs>
  <g id="Layer_3" data-name="Layer 3">
    <g>
      <polygon class="cls-5" points="41.09 121.65 .9 161.85 .9 81.46 41.09 121.65"/>
      <path class="cls-1" d="M.53,162.75v-82.2l41.09,41.1L.53,162.75ZM1.28,82.36v78.58l39.28-39.29L1.28,82.36Z"/>
    </g>
    <g>
      <polygon class="cls-7" points="81.29 161.85 .9 161.85 41.09 121.65 81.29 161.85"/>
      <path class="cls-1" d="M82.2,162.22H0l41.09-41.11.27.26,40.84,40.84ZM1.81,161.47h78.58l-39.29-39.29L1.81,161.47Z"/>
    </g>
    <g>
      <polygon class="cls-5" points="41.09 41.11 .9 81.3 .9 .91 41.09 41.11"/>
      <path class="cls-1" d="M.53,82.2V0l41.09,41.1-.26.27L.53,82.2ZM1.28,1.81v78.58l39.28-39.28L1.28,1.81Z"/>
    </g>
    <g>
      <polygon class="cls-7" points="81.29 .91 41.09 41.11 .9 .91 81.29 .91"/>
      <path class="cls-1" d="M41.09,41.64l-.27-.27L0,.53h82.2l-41.11,41.1ZM1.81,1.28l39.28,39.29L80.39,1.28H1.81Z"/>
    </g>
    <g>
      <polygon class="cls-4" points="161.83 161.85 81.43 161.85 121.63 121.65 161.83 161.85"/>
      <path class="cls-1" d="M162.74,162.22h-82.21l41.11-41.11.27.26,40.84,40.84ZM82.34,161.47h78.59l-39.29-39.29-39.29,39.29Z"/>
    </g>
    <g>
      <polygon class="cls-2" points="161.83 81.46 161.83 161.85 121.63 121.65 161.83 81.46"/>
      <path class="cls-1" d="M162.21,162.75l-41.11-41.11,41.11-41.1v82.2ZM122.17,121.65l39.29,39.29v-78.58l-39.29,39.28Z"/>
    </g>
    <g>
      <polygon class="cls-4" points="161.83 .91 121.63 41.11 81.43 .91 161.83 .91"/>
      <path class="cls-1" d="M121.63,41.64l-.27-.27L80.53.53h82.21l-41.11,41.1ZM82.34,1.28l39.29,39.29L160.93,1.28h-78.59Z"/>
    </g>
    <g>
      <polygon class="cls-2" points="161.83 .91 161.83 81.3 121.63 41.11 161.83 .91"/>
      <path class="cls-1" d="M162.21,82.2l-41.11-41.1.26-.27L162.21,0v82.2ZM122.17,41.1l39.29,39.28V1.81l-39.29,39.29Z"/>
    </g>
    <path class="cls-3" d="M81.43,1.41h-.14c-.2,0-.38-.12-.46-.31s-.03-.4.11-.54c.09-.09.26-.18.39-.18h0c.13,0,.3.02.39.11.14.14.22.39.14.58-.08.19-.23.34-.43.34Z"/>
    <path class="cls-3" d="M81.4,162.38c-.13,0-.29-.02-.38-.11-.14-.14-.22-.39-.14-.58s.22-.34.43-.34h.14c.2,0,.38.12.46.31.08.19.04.4-.1.54-.09.09-.26.18-.39.18h0Z"/>
    <g>
      <polygon class="cls-7" points="41.13 41.15 41.13 121.61 41.09 121.65 .9 81.46 .9 81.3 41.09 41.11 41.13 41.15"/>
      <path class="cls-1" d="M41.13,122.14l-.31-.22L.53,81.61v-.47l.11-.11,40.46-40.46.38.38.04.2v80.62l-.38.38ZM1.36,81.38l39.4,39.4V41.97L1.36,81.38Z"/>
    </g>
    <g>
      <polygon class="cls-4" points="161.83 81.3 161.83 81.46 121.63 121.65 121.6 121.61 121.6 41.15 121.63 41.11 161.83 81.3"/>
      <path class="cls-1" d="M121.6,122.21l-.34-.44-.03-.17V41.02l.34-.44.33.26,40.31,40.3v.47l-.11.11-40.5,40.49ZM121.98,41.98v78.79l39.41-39.4-39.41-39.4Z"/>
    </g>
    <g>
      <polygon class="cls-4" points="121.6 41.15 121.6 121.61 121.59 121.61 81.37 81.38 121.59 41.15 121.6 41.15"/>
      <path class="cls-1" d="M121.98,121.98h-.53l-.12-.11-40.48-40.49,40.59-40.6h.53v.38s0,80.83,0,80.83ZM81.91,81.38l39.32,39.33V42.04l-39.32,39.33Z"/>
    </g>
    <g>
      <polygon class="cls-6" points="121.59 121.61 41.14 121.61 81.37 81.38 121.59 121.61"/>
      <path class="cls-1" d="M122.5,121.98H40.24l41.14-41.14.27.27,40.86,40.87ZM42.05,121.23h78.64l-39.31-39.32-39.33,39.32Z"/>
    </g>
    <g>
      <polygon class="cls-6" points="121.63 41.11 121.6 41.15 41.13 41.15 41.09 41.11 81.29 .91 81.43 .91 121.63 41.11"/>
      <path class="cls-1" d="M121.79,41.52H40.98l-.38-.38.22-.31L81.14.53h.45l.11.11,40.43,40.43-.34.45ZM41.96,40.77h78.81L81.37,1.37l-39.41,39.4Z"/>
    </g>
    <g>
      <polygon class="cls-6" points="121.63 121.65 81.43 161.85 81.29 161.85 41.09 121.65 41.13 121.61 121.6 121.61 121.63 121.65"/>
      <path class="cls-1" d="M81.59,162.22h-.45l-.11-.11-40.46-40.47.38-.38.2-.04h80.66l.31.41-.2.27-40.31,40.31ZM41.96,121.98l39.4,39.4,39.41-39.4H41.96Z"/>
    </g>
    <g>
      <polygon class="cls-7" points="81.37 81.38 41.14 121.61 41.13 121.61 41.13 41.15 41.14 41.15 81.37 81.38"/>
      <path class="cls-1" d="M41.3,121.98h-.53v-.38s0-80.83,0-80.83h.53l.12.11,40.5,40.5-.26.27-40.34,40.34ZM41.51,42.04v78.67l39.33-39.33-39.33-39.33Z"/>
    </g>
    <g>
      <polygon class="cls-6" points="121.59 41.15 81.37 81.38 41.14 41.15 121.59 41.15"/>
      <path class="cls-1" d="M81.38,81.91l-.27-.27-40.87-40.87h82.26l-41.12,41.14ZM42.05,41.52l39.33,39.32,39.31-39.32H42.05Z"/>
    </g>
  </g>
  <g id="Layer_4" data-name="Layer 4">
    <g>
      <path class="cls-3" d="M36.25,15.01c-.25,0-.27,0-.49.03-.25.03-.26.04-.26.23v3.43c0,1.11-.76,2.16-2.48,2.16-1.86,0-2.84-.98-2.84-2.18v-3.67h-.97v-.42c.34.03,1.22.03,1.61.03s1.27,0,1.61-.03v.42h-.97v3.75c0,.5.02,1.68,1.59,1.68.98,0,1.96-.44,1.96-1.77v-3.39c0-.2,0-.21-.27-.23-.16-.02-.32-.03-.48-.03h-.22v-.42c.37.03.84.03,1.22.03.35,0,.86,0,1.21-.03v.42h-.23Z"/>
      <path class="cls-3" d="M40.9,20.73l-1.13.03v-.42h.62v-2.43c0-.68-.19-.87-.5-.87-.57,0-1.34.44-1.34,1.42v1.88h.62v.42l-1.13-.03-1.13.03v-.42h.62v-2.78c0-.35-.06-.35-.62-.35v-.42l1.55-.07v.97c.23-.46.71-.97,1.58-.97s1.39.35,1.39,1.3v2.33h.62v.42l-1.13-.03Z"/>
      <path class="cls-3" d="M43.44,20.73l-1.1.03v-.42h.62v-2.78c0-.35-.06-.35-.59-.35v-.42l1.57-.07v3.63h.56v.42l-1.05-.03ZM43.36,16c-.39,0-.7-.32-.7-.7s.32-.7.7-.7.7.32.7.7-.32.7-.7.7Z"/>
      <path class="cls-3" d="M46.81,20.81c-.64,0-1.42-.2-1.42-1.16v-2.47h-.74v-.32c.89-.03,1.33-.92,1.34-1.82h.42v1.72h1.31v.42h-1.31v2.48c0,.21,0,.78.52.78.25,0,.54-.22.54-.83v-.46h.42v.48c0,.66-.41,1.17-1.09,1.17Z"/>
      <path class="cls-3" d="M52.41,17.37l-1.94,4.11c-.24.51-.77,1.07-1.46,1.07-.54,0-.96-.37-.96-.83,0-.35.26-.52.51-.52.31,0,.52.22.52.51,0,.31-.21.44-.29.48.07.03.09.04.22.04.64,0,.93-.61,1.13-1.04l.21-.43-1.68-3.57h-.58v-.42l1.03.03,1.12-.03v.42h-.49l1.14,2.43,1.04-2.21.04-.11c0-.11-.42-.11-.42-.11v-.42l.82.03c.22,0,.5,0,.71-.03v.42c-.58,0-.6.06-.67.19Z"/>
    </g>
    <g>
      <path class="cls-3" d="M111.4,16.85c-.09-1.03-.18-1.75-1.47-1.75h-.68v5.23h1.38v.42c-.49-.03-1.49-.03-2.02-.03s-1.53,0-2.02.03v-.42h1.38v-5.23h-.69c-1.3,0-1.39.73-1.47,1.75h-.42l.19-2.17h6.06l.19,2.17h-.42Z"/>
      <path class="cls-3" d="M113.59,20.81c-1.5,0-2.3-.9-2.3-2.02,0-1.2.82-2.12,2.3-2.12s2.3.91,2.3,2.12c0,1.11-.78,2.02-2.3,2.02ZM114.55,17.46c-.2-.31-.58-.46-.95-.46-.44,0-.82.19-.99.52-.15.31-.15.77-.15,1.17,0,.78,0,1.76,1.14,1.76s1.14-.97,1.14-1.76c0-.43,0-.93-.19-1.23Z"/>
      <path class="cls-3" d="M118.2,20.81c-.64,0-1.42-.2-1.42-1.16v-2.47h-.74v-.32c.89-.03,1.33-.92,1.34-1.82h.42v1.72h1.31v.42h-1.31v2.48c0,.21,0,.78.52.78.25,0,.54-.22.54-.83v-.46h.42v.48c0,.66-.41,1.17-1.09,1.17Z"/>
      <path class="cls-3" d="M124.28,20.76h-.43c-.94,0-.94-.41-.94-.69-.2.38-.62.75-1.34.75-.62,0-1.74-.16-1.74-1.03,0-1.31,2.29-1.39,2.93-1.41v-.31c0-.68-.32-1.06-.99-1.06-.11,0-.4,0-.65.06.03.02.2.17.2.44,0,.38-.29.57-.57.57-.24,0-.56-.17-.56-.57,0-.79,1.1-.83,1.61-.83,1.34,0,1.98.58,1.98,1.39v1.94c0,.21,0,.32.55.33.12,0,.23,0,.23.21s-.11.22-.29.22ZM122.76,18.65c-.45.03-1.87.15-1.87,1.12,0,.4.36.71.82.71.23,0,1.05-.12,1.05-.98v-.85Z"/>
      <path class="cls-3" d="M125.77,20.73l-1.11.03v-.42h.62v-4.98c0-.35-.06-.35-.62-.35v-.42l1.59-.07v5.82h.62v.42l-1.11-.03Z"/>
      <path class="cls-3" d="M128.3,20.73l-1.1.03v-.42h.62v-2.78c0-.35-.06-.35-.59-.35v-.42l1.57-.07v3.63h.56v.42l-1.05-.03ZM128.22,16c-.39,0-.7-.32-.7-.7s.32-.7.7-.7.7.32.7.7-.32.7-.7.7Z"/>
      <path class="cls-3" d="M131.67,20.81c-.64,0-1.42-.2-1.42-1.16v-2.47h-.74v-.32c.89-.03,1.33-.92,1.34-1.82h.42v1.72h1.31v.42h-1.31v2.48c0,.21,0,.78.52.78.25,0,.54-.22.54-.83v-.46h.42v.48c0,.66-.41,1.17-1.09,1.17Z"/>
      <path class="cls-3" d="M137.27,17.37l-1.94,4.11c-.24.51-.77,1.07-1.46,1.07-.54,0-.96-.37-.96-.83,0-.35.26-.52.51-.52.31,0,.52.22.52.51,0,.31-.21.44-.29.48.07.03.09.04.22.04.64,0,.93-.61,1.13-1.04l.21-.43-1.68-3.57h-.58v-.42l1.03.03,1.12-.03v.42h-.49l1.14,2.43,1.04-2.21.04-.11c0-.11-.42-.11-.42-.11v-.42l.82.03c.22,0,.5,0,.71-.03v.42c-.58,0-.6.06-.67.19Z"/>
    </g>
    <g>
      <path class="cls-3" d="M23.67,151.51h-1.59v2.3h.97v.42c-.34-.03-1.22-.03-1.61-.03s-1.27,0-1.61.03v-.42h.97v-5.33h-.97v-.42h3.75c1.49,0,2.39.77,2.39,1.76,0,1.05-1.04,1.7-2.3,1.7ZM23.24,148.48h-1.21v2.67h1.21c1.36,0,1.36-.69,1.36-1.33s0-1.33-1.35-1.33Z"/>
      <path class="cls-3" d="M28.52,154.29c-1.5,0-2.3-.9-2.3-2.02,0-1.2.82-2.12,2.3-2.12s2.3.91,2.3,2.12c0,1.11-.78,2.02-2.3,2.02ZM29.47,150.94c-.2-.31-.58-.46-.95-.46-.44,0-.82.19-.99.52-.15.31-.15.76-.15,1.17,0,.78,0,1.76,1.14,1.76s1.14-.97,1.14-1.76c0-.43,0-.93-.19-1.23Z"/>
      <path class="cls-3" d="M32.84,154.29c-.18,0-.65,0-1.06-.29l-.23.15c-.19.14-.21.14-.27.14-.16,0-.16-.08-.16-.25v-.98c0-.21,0-.26.22-.26.13,0,.17,0,.22.13.11.39.34,1.04,1.3,1.04.2,0,1.03,0,1.03-.68,0-.53-.67-.65-1-.7-.69-.13-1.04-.18-1.4-.5-.18-.15-.36-.4-.36-.76,0-1.18,1.39-1.18,1.66-1.18.36,0,.67.05.91.17.35-.17.37-.17.41-.17.16,0,.16.08.16.25v.72c0,.21,0,.25-.22.25-.19,0-.2-.04-.21-.18-.04-.5-.39-.76-1.06-.76-.17,0-1.01,0-1.01.56,0,.42.58.52.92.58.7.12.99.17,1.34.43.31.25.5.57.5.96,0,1.31-1.39,1.31-1.67,1.31Z"/>
      <path class="cls-3" d="M36.6,154.29c-.18,0-.65,0-1.06-.29l-.23.15c-.19.14-.21.14-.27.14-.16,0-.16-.08-.16-.25v-.98c0-.21,0-.26.22-.26.13,0,.17,0,.22.13.11.39.34,1.04,1.3,1.04.2,0,1.03,0,1.03-.68,0-.53-.67-.65-1-.7-.69-.13-1.04-.18-1.4-.5-.18-.15-.36-.4-.36-.76,0-1.18,1.39-1.18,1.66-1.18.36,0,.67.05.91.17.35-.17.37-.17.4-.17.16,0,.16.08.16.25v.72c0,.21,0,.25-.22.25-.19,0-.2-.04-.21-.18-.04-.5-.39-.76-1.06-.76-.17,0-1.01,0-1.01.56,0,.42.58.52.92.58.7.12.99.17,1.34.43.31.25.5.57.5.96,0,1.31-1.39,1.31-1.67,1.31Z"/>
      <path class="cls-3" d="M39.8,154.2l-1.1.03v-.42h.62v-2.78c0-.35-.06-.35-.59-.35v-.42l1.57-.07v3.63h.56v.42l-1.05-.03ZM39.72,149.47c-.39,0-.7-.32-.7-.7s.32-.7.7-.7.7.32.7.7-.32.7-.7.7Z"/>
      <path class="cls-3" d="M43.95,154.29c-.8,0-1.24-.49-1.31-.56-.14.17-.3.33-.44.5h-.42v-5.4c0-.35-.06-.35-.62-.35v-.42l1.59-.07v2.64c.22-.18.67-.44,1.32-.44,1.31,0,2.15.85,2.15,2.04s-.93,2.06-2.27,2.06ZM43.97,150.5c-.5,0-.93.26-1.17.58v2.26c.09.13.44.62,1.07.62.29,0,.7-.1.96-.47.23-.35.23-.85.23-1.27,0-.63,0-1.72-1.1-1.72Z"/>
      <path class="cls-3" d="M47.76,154.2l-1.1.03v-.42h.62v-2.78c0-.35-.06-.35-.59-.35v-.42l1.57-.07v3.63h.56v.42l-1.05-.03ZM47.68,149.47c-.39,0-.7-.32-.7-.7s.32-.7.7-.7.7.32.7.7-.32.7-.7.7Z"/>
      <path class="cls-3" d="M50.3,154.2l-1.11.03v-.42h.62v-4.98c0-.35-.06-.35-.62-.35v-.42l1.59-.07v5.83h.62v.42l-1.11-.03Z"/>
      <path class="cls-3" d="M52.83,154.2l-1.1.03v-.42h.62v-2.78c0-.35-.06-.35-.59-.35v-.42l1.57-.07v3.63h.56v.42l-1.05-.03ZM52.75,149.47c-.39,0-.7-.32-.7-.7s.32-.7.7-.7.7.32.7.7-.32.7-.7.7Z"/>
      <path class="cls-3" d="M56.2,154.29c-.64,0-1.42-.2-1.42-1.16v-2.47h-.74v-.32c.89-.03,1.33-.92,1.34-1.82h.42v1.72h1.31v.42h-1.31v2.49c0,.21,0,.78.52.78.25,0,.54-.22.54-.83v-.46h.42v.48c0,.66-.41,1.17-1.09,1.17Z"/>
      <path class="cls-3" d="M61.81,150.85l-1.94,4.11c-.24.51-.77,1.07-1.46,1.07-.54,0-.96-.37-.96-.83,0-.35.26-.52.51-.52.31,0,.52.22.52.51,0,.31-.21.44-.29.48.07.03.09.04.22.04.64,0,.93-.61,1.13-1.04l.21-.43-1.68-3.57h-.58v-.42l1.03.03,1.12-.03v.42h-.49l1.14,2.43,1.04-2.21.04-.11c0-.11-.42-.11-.42-.11v-.42l.82.03c.22,0,.5,0,.71-.03v.42c-.58,0-.6.06-.67.19Z"/>
    </g>
    <g>
      <path class="cls-3" d="M109.23,148.48c-.25,0-.27,0-.49.03-.25.03-.26.04-.26.23v5.2c0,.21,0,.29-.24.29-.14,0-.15,0-.24-.12l-4.48-5.28v4.71c0,.2,0,.21.27.23.16.02.32.03.48.03h.22v.42c-.37-.03-.84-.03-1.21-.03-.35,0-.86,0-1.21.03v-.42h.22c.25,0,.27,0,.49-.03.25-.03.26-.04.26-.23v-5.07h-.97v-.42h2.06c.19,0,.2,0,.3.12l3.58,4.21v-3.65c0-.2,0-.21-.27-.23-.16-.02-.31-.03-.48-.03h-.23v-.42c.37.03.84.03,1.22.03.35,0,.86,0,1.21-.03v.42h-.22Z"/>
      <path class="cls-3" d="M112.12,154.29c-1.45,0-2.35-.87-2.35-2.08,0-1.12.78-2.05,2.22-2.05.62,0,1.1.16,1.43.49.45.45.5,1.11.5,1.39,0,.24-.09.24-.29.24h-2.72c0,.46,0,1.66,1.28,1.66.58,0,1.1-.29,1.29-.72.05-.14.07-.19.23-.19.04,0,.22,0,.22.16,0,.15-.39,1.11-1.81,1.11ZM111.99,150.48c-.26,0-.62.11-.86.47-.19.3-.2.68-.22,1.03h2.15c0-.31-.03-1.49-1.08-1.49Z"/>
      <path class="cls-3" d="M116.47,154.29c-1.39,0-2.23-.86-2.23-2.05,0-1.04.67-2.08,2.28-2.08.52,0,1.57.05,1.57.83,0,.38-.29.57-.57.57-.24,0-.56-.17-.56-.57,0-.08.02-.27.18-.41-.12-.03-.27-.05-.58-.05-1.16,0-1.16,1.17-1.16,1.67,0,.41,0,1.74,1.25,1.74.46,0,.89-.17,1.12-.74.04-.12.05-.13.22-.13.09,0,.22,0,.22.13,0,.06-.27,1.11-1.73,1.11Z"/>
      <path class="cls-3" d="M120.79,154.29c-1.45,0-2.35-.87-2.35-2.08,0-1.12.78-2.05,2.22-2.05.62,0,1.1.16,1.43.49.45.45.5,1.11.5,1.39,0,.24-.09.24-.29.24h-2.72c0,.46,0,1.66,1.28,1.66.58,0,1.1-.29,1.29-.72.05-.14.07-.19.23-.19.04,0,.22,0,.22.16,0,.15-.39,1.11-1.81,1.11ZM120.67,150.48c-.26,0-.62.11-.86.47-.19.3-.2.68-.22,1.03h2.15c0-.31-.03-1.49-1.08-1.49Z"/>
      <path class="cls-3" d="M124.64,154.29c-.18,0-.65,0-1.06-.29l-.23.15c-.19.14-.21.14-.27.14-.16,0-.16-.08-.16-.25v-.98c0-.21,0-.26.22-.26.13,0,.17,0,.22.13.11.39.34,1.04,1.3,1.04.2,0,1.03,0,1.03-.68,0-.53-.67-.65-1-.7-.69-.13-1.04-.18-1.4-.5-.18-.15-.36-.4-.36-.76,0-1.18,1.39-1.18,1.66-1.18.36,0,.67.05.91.17.35-.17.37-.17.4-.17.16,0,.16.08.16.25v.72c0,.21,0,.25-.22.25-.19,0-.2-.04-.21-.18-.04-.5-.39-.76-1.06-.76-.17,0-1.01,0-1.01.56,0,.42.58.52.92.58.7.12.99.17,1.34.43.31.25.5.57.5.96,0,1.31-1.39,1.31-1.67,1.31Z"/>
      <path class="cls-3" d="M128.39,154.29c-.18,0-.65,0-1.06-.29l-.23.15c-.19.14-.21.14-.27.14-.16,0-.16-.08-.16-.25v-.98c0-.21,0-.26.22-.26.13,0,.17,0,.22.13.11.39.34,1.04,1.3,1.04.2,0,1.03,0,1.03-.68,0-.53-.67-.65-1-.7-.69-.13-1.04-.18-1.4-.5-.18-.15-.36-.4-.36-.76,0-1.18,1.39-1.18,1.66-1.18.36,0,.67.05.91.17.35-.17.37-.17.41-.17.16,0,.16.08.16.25v.72c0,.21,0,.25-.22.25-.19,0-.2-.04-.21-.18-.04-.5-.39-.76-1.06-.76-.17,0-1.01,0-1.01.56,0,.42.58.52.92.58.7.12.99.17,1.34.43.31.25.5.57.5.96,0,1.31-1.39,1.31-1.67,1.31Z"/>
      <path class="cls-3" d="M131.59,154.2l-1.1.03v-.42h.62v-2.78c0-.35-.06-.35-.59-.35v-.42l1.57-.07v3.63h.56v.42l-1.05-.03ZM131.51,149.47c-.39,0-.7-.32-.7-.7s.32-.7.7-.7.7.32.7.7-.32.7-.7.7Z"/>
      <path class="cls-3" d="M134.96,154.29c-.64,0-1.42-.2-1.42-1.16v-2.47h-.74v-.32c.89-.03,1.33-.92,1.34-1.82h.42v1.72h1.31v.42h-1.31v2.49c0,.21,0,.78.52.78.25,0,.54-.22.54-.83v-.46h.42v.48c0,.66-.41,1.17-1.09,1.17Z"/>
      <path class="cls-3" d="M140.57,150.85l-1.94,4.11c-.24.51-.77,1.07-1.46,1.07-.54,0-.96-.37-.96-.83,0-.35.26-.52.51-.52.31,0,.52.22.52.51,0,.31-.21.44-.29.48.07.03.09.04.22.04.64,0,.93-.61,1.13-1.04l.21-.43-1.68-3.57h-.58v-.42l1.03.03,1.12-.03v.42h-.49l1.14,2.43,1.04-2.21.04-.11c0-.11-.42-.11-.42-.11v-.42l.82.03c.22,0,.5,0,.71-.03v.42c-.58,0-.6.06-.67.19Z"/>
    </g>
    <g>
      <path class="cls-3" d="M66.93,32.08h-1.59v2.3h.97v.42c-.34-.03-1.22-.03-1.61-.03s-1.27,0-1.61.03v-.42h.97v-5.33h-.97v-.42h3.75c1.49,0,2.39.77,2.39,1.76,0,1.05-1.04,1.7-2.3,1.7ZM66.49,29.04h-1.21v2.67h1.21c1.36,0,1.36-.69,1.36-1.33s0-1.33-1.35-1.33Z"/>
      <path class="cls-3" d="M71,34.77l-1.11.03v-.42h.62v-4.98c0-.35-.06-.35-.62-.35v-.42l1.59-.07v5.82h.62v.42l-1.11-.03Z"/>
      <path class="cls-3" d="M75.95,34.85v-.7c-.41.7-1.06.7-1.3.7-.89,0-1.62-.2-1.62-1.16v-2.1c0-.35-.06-.35-.62-.35v-.42l1.65-.07v3.07c0,.49.03.71.72.71s1.12-.48,1.12-1.22v-1.72c0-.35-.06-.35-.62-.35v-.42l1.65-.07v3.28c0,.35.06.35.62.35v.42l-1.59.05Z"/>
      <path class="cls-3" d="M80.86,32.03c-.26,0-.55-.18-.55-.55,0-.26.17-.41.17-.41-.9,0-1.12,1.1-1.12,1.73v1.58h.78v.42c-.32-.03-.9-.03-1.24-.03l-1.13.03v-.42h.62v-2.78c0-.35-.06-.35-.62-.35v-.42l1.49-.07v1.02c.21-.57.57-1.02,1.2-1.02.47,0,.96.26.96.74,0,.36-.29.55-.55.55Z"/>
      <path class="cls-3" d="M86.1,34.8h-.43c-.94,0-.94-.41-.94-.69-.2.38-.62.75-1.34.75-.62,0-1.74-.16-1.74-1.03,0-1.31,2.29-1.39,2.93-1.41v-.31c0-.68-.32-1.06-.99-1.06-.11,0-.4,0-.65.06.03.02.2.17.2.44,0,.38-.29.57-.57.57-.24,0-.56-.17-.56-.57,0-.79,1.1-.83,1.61-.83,1.34,0,1.98.58,1.98,1.39v1.94c0,.21,0,.32.55.33.12,0,.23,0,.23.21s-.11.22-.29.22ZM84.58,32.69c-.45.03-1.87.15-1.87,1.12,0,.4.36.71.82.71.22,0,1.05-.12,1.05-.98v-.85Z"/>
      <path class="cls-3" d="M87.59,34.77l-1.11.03v-.42h.62v-4.98c0-.35-.06-.35-.62-.35v-.42l1.59-.07v5.82h.62v.42l-1.11-.03Z"/>
      <path class="cls-3" d="M90.12,34.77l-1.1.03v-.42h.62v-2.78c0-.35-.06-.35-.59-.35v-.42l1.57-.07v3.63h.56v.42l-1.05-.03ZM90.04,30.03c-.39,0-.7-.32-.7-.7s.32-.7.7-.7.7.32.7.7-.32.7-.7.7Z"/>
      <path class="cls-3" d="M93.48,34.85c-.64,0-1.42-.2-1.42-1.16v-2.47h-.74v-.32c.89-.03,1.33-.92,1.34-1.82h.42v1.72h1.31v.42h-1.31v2.48c0,.21,0,.78.52.78.25,0,.54-.22.54-.83v-.46h.42v.48c0,.66-.41,1.17-1.09,1.17Z"/>
      <path class="cls-3" d="M99.09,31.41l-1.94,4.11c-.24.51-.77,1.07-1.46,1.07-.54,0-.96-.37-.96-.83,0-.35.26-.52.51-.52.31,0,.52.22.52.51,0,.31-.21.44-.29.48.07.03.09.04.22.04.64,0,.93-.61,1.13-1.04l.21-.43-1.68-3.57h-.58v-.42l1.03.03,1.12-.03v.42h-.49l1.14,2.43,1.04-2.21.04-.11c0-.11-.42-.11-.42-.11v-.42l.82.03c.22,0,.5,0,.71-.03v.42c-.58,0-.6.06-.67.19Z"/>
    </g>
    <g>
      <path class="cls-3" d="M68.49,54.56c-.84,0-1.02-.71-1.27-1.73-.36.07-.66.08-.85.08-2.09,0-3.31-1.31-3.31-3.15s1.25-3.22,3.31-3.22,3.3,1.28,3.3,3.22c0,.98-.39,2.31-1.86,2.89.35.53.62.53.83.53.15,0,.71,0,.76-.35,0-.06.03-.18.16-.18.16,0,.16.16.16.23,0,.61-.32,1.67-1.23,1.67ZM67.98,47.85c-.43-.77-1.13-.94-1.62-.94-.41,0-1.18.13-1.65,1-.33.64-.33,1.49-.33,1.85,0,.7.03,2.07,1.13,2.6-.02-.04-.03-.14-.03-.2,0-.43.41-.74.87-.74.6,0,.93.48,1.13.77.86-.59.86-1.94.86-2.44,0-.53-.03-1.31-.37-1.91ZM66.36,51.75c-.3,0-.56.17-.56.41,0,.11.06.4.56.4.24,0,.51-.04.74-.14-.18-.57-.49-.67-.74-.67Z"/>
      <path class="cls-3" d="M73.86,52.87v-.7c-.41.7-1.06.7-1.3.7-.89,0-1.62-.2-1.62-1.16v-2.1c0-.35-.06-.35-.62-.35v-.42l1.65-.07v3.07c0,.49.03.71.72.71s1.12-.48,1.12-1.22v-1.72c0-.35-.06-.35-.62-.35v-.42l1.65-.07v3.28c0,.35.06.35.62.35v.42l-1.59.05Z"/>
      <path class="cls-3" d="M80.07,52.82h-.43c-.94,0-.94-.41-.94-.69-.2.38-.62.75-1.34.75-.62,0-1.74-.16-1.74-1.03,0-1.31,2.29-1.39,2.93-1.41v-.31c0-.68-.32-1.06-.99-1.06-.11,0-.4,0-.65.06.03.02.2.17.2.44,0,.38-.29.57-.57.57-.24,0-.56-.17-.56-.57,0-.79,1.1-.83,1.61-.83,1.34,0,1.98.58,1.98,1.39v1.94c0,.21,0,.32.55.33.12,0,.23,0,.23.21s-.11.22-.29.22ZM78.55,50.71c-.45.03-1.87.15-1.87,1.12,0,.4.36.71.82.71.22,0,1.05-.12,1.05-.98v-.85Z"/>
      <path class="cls-3" d="M84.44,52.79l-1.13.03v-.42h.62v-2.43c0-.68-.19-.87-.5-.87-.57,0-1.34.44-1.34,1.42v1.88h.62v.42l-1.13-.03-1.13.03v-.42h.62v-2.78c0-.35-.06-.35-.62-.35v-.42l1.55-.07v.97c.23-.46.71-.97,1.58-.97s1.39.35,1.39,1.3v2.33h.62v.42l-1.13-.03Z"/>
      <path class="cls-3" d="M87.51,52.87c-.64,0-1.42-.2-1.42-1.16v-2.47h-.74v-.32c.89-.03,1.33-.92,1.34-1.82h.42v1.72h1.31v.42h-1.31v2.48c0,.21,0,.78.52.78.25,0,.54-.22.54-.83v-.46h.42v.48c0,.66-.41,1.17-1.09,1.17Z"/>
      <path class="cls-3" d="M90.38,52.79l-1.1.03v-.42h.62v-2.78c0-.35-.06-.35-.59-.35v-.42l1.57-.07v3.63h.56v.42l-1.05-.03ZM90.29,48.06c-.39,0-.7-.32-.7-.7s.32-.7.7-.7.7.32.7.7-.32.7-.7.7Z"/>
      <path class="cls-3" d="M93.74,52.87c-.64,0-1.42-.2-1.42-1.16v-2.47h-.74v-.32c.89-.03,1.33-.92,1.34-1.82h.42v1.72h1.31v.42h-1.31v2.48c0,.21,0,.78.52.78.25,0,.54-.22.54-.83v-.46h.42v.48c0,.66-.41,1.17-1.09,1.17Z"/>
      <path class="cls-3" d="M99.35,49.43l-1.94,4.11c-.24.51-.77,1.07-1.46,1.07-.54,0-.96-.37-.96-.83,0-.35.26-.52.51-.52.31,0,.52.22.52.51,0,.31-.21.44-.29.48.07.03.09.04.22.04.64,0,.93-.61,1.13-1.04l.21-.43-1.68-3.57h-.58v-.42l1.03.03,1.12-.03v.42h-.49l1.14,2.43,1.04-2.21.04-.11c0-.11-.42-.11-.42-.11v-.42l.82.03c.22,0,.5,0,.71-.03v.42c-.58,0-.6.06-.67.19Z"/>
    </g>
    <g>
      <path class="cls-3" d="M69.95,115.44c-.37,0-1.21,0-1.53.03v-.42h.97v-5.33h0l-2.51,5.54c-.04.08-.11.22-.29.22-.1,0-.21-.04-.29-.23l-2.45-5.41h0v4.95c0,.2,0,.21.27.23.16.02.31.03.48.03h.23v.42c-.37-.03-.84-.03-1.22-.03-.35,0-.86,0-1.21.03v-.42h.22c.25,0,.27,0,.49-.03.25-.03.26-.04.26-.23v-5.07h-.97v-.42h2c.2,0,.3,0,.4.22l2.16,4.76,2.16-4.76c.1-.22.2-.22.4-.22h1.99v.42h-.97v5.33h.97v.42c-.32-.03-1.17-.03-1.54-.03Z"/>
      <path class="cls-3" d="M74.1,115.52c-1.5,0-2.3-.9-2.3-2.02,0-1.2.82-2.12,2.3-2.12s2.3.91,2.3,2.12c0,1.11-.78,2.02-2.3,2.02ZM75.06,112.17c-.2-.32-.58-.46-.95-.46-.44,0-.82.19-.99.52-.15.31-.15.77-.15,1.17,0,.78,0,1.75,1.14,1.75s1.14-.97,1.14-1.75c0-.43,0-.93-.19-1.23Z"/>
      <path class="cls-3" d="M80.41,115.52v-.44c-.28.23-.71.44-1.26.44-1.33,0-2.16-.86-2.16-2.04,0-1.27.95-2.06,2.26-2.06.3,0,.77.05,1.22.41v-1.75c0-.35-.06-.35-.62-.35v-.42l1.59-.07v5.47c0,.35.06.35.62.35v.42l-1.65.05ZM80.41,112.28c-.2-.26-.56-.55-1.07-.55-.28,0-.7.09-.96.47-.23.35-.23.84-.23,1.27,0,.63,0,1.72,1.1,1.72.68,0,1.05-.5,1.17-.66v-2.25Z"/>
      <path class="cls-3" d="M86.8,115.46h-.43c-.94,0-.94-.41-.94-.69-.2.38-.62.75-1.34.75-.62,0-1.74-.16-1.74-1.03,0-1.31,2.29-1.39,2.93-1.41v-.31c0-.68-.32-1.06-.99-1.06-.11,0-.4,0-.65.06.03.02.2.17.2.44,0,.38-.29.57-.57.57-.24,0-.56-.17-.56-.57,0-.79,1.1-.83,1.61-.83,1.34,0,1.98.58,1.98,1.39v1.94c0,.21,0,.32.55.33.12,0,.23,0,.23.21s-.11.22-.29.22ZM85.28,113.36c-.45.03-1.87.15-1.87,1.12,0,.4.36.71.82.71.23,0,1.05-.12,1.05-.98v-.85Z"/>
      <path class="cls-3" d="M88.3,115.44l-1.11.03v-.42h.62v-4.98c0-.35-.06-.35-.62-.35v-.42l1.59-.07v5.82h.62v.42l-1.11-.03Z"/>
      <path class="cls-3" d="M90.82,115.44l-1.1.03v-.42h.62v-2.78c0-.35-.06-.35-.59-.35v-.42l1.57-.07v3.63h.56v.42l-1.05-.03ZM90.74,110.7c-.39,0-.7-.32-.7-.7s.32-.7.7-.7.7.32.7.7-.32.7-.7.7Z"/>
      <path class="cls-3" d="M94.19,115.52c-.64,0-1.42-.2-1.42-1.16v-2.47h-.74v-.32c.89-.03,1.33-.92,1.34-1.82h.42v1.72h1.31v.42h-1.31v2.48c0,.21,0,.78.52.78.25,0,.54-.22.54-.83v-.46h.42v.48c0,.66-.41,1.17-1.09,1.17Z"/>
      <path class="cls-3" d="M99.8,112.08l-1.94,4.11c-.24.51-.77,1.07-1.46,1.07-.54,0-.96-.37-.96-.83,0-.35.26-.52.51-.52.31,0,.52.22.52.51,0,.32-.21.44-.29.48.07.03.09.04.22.04.64,0,.93-.61,1.13-1.04l.21-.43-1.68-3.57h-.58v-.42l1.03.03,1.12-.03v.42h-.49l1.14,2.43,1.04-2.21.04-.11c0-.11-.42-.11-.42-.11v-.42l.82.03c.22,0,.5,0,.71-.03v.42c-.58,0-.6.06-.67.19Z"/>
    </g>
    <g>
      <path class="cls-3" d="M67.25,133.48h-5.74v-.42h.97v-5.28h-.97v-.42h5.59l.28,2.17h-.42c-.14-1.09-.38-1.75-1.83-1.75h-1.37v2.31h.5c.87,0,.95-.39.95-1.05h.42v2.53h-.42c0-.67-.09-1.05-.95-1.05h-.5v2.54h1.37c1.67,0,1.92-.8,2.12-2.04h.42l-.41,2.47Z"/>
      <path class="cls-3" d="M71.9,133.46l-1.08.03v-.42h.35l-.99-1.17-.87.98c-.06.07-.06.09-.06.09,0,.05.17.1.33.1v.42l-.93-.03-.83.03v-.42c.43,0,.76,0,.91-.17l1.18-1.32-1.41-1.66h-.64v-.42l.99.03,1.09-.03v.42h-.36l.88,1.04.76-.85s.04-.05.07-.11c-.11-.06-.22-.08-.34-.08v-.42l.93.03.83-.03v.42c-.75,0-.8.06-.92.19l-1.05,1.17,1.51,1.79h.64v.42l-.99-.03Z"/>
      <path class="cls-3" d="M74.28,133.46l-1.1.03v-.42h.62v-2.78c0-.35-.06-.35-.59-.35v-.42l1.57-.07v3.63h.56v.42l-1.05-.03ZM74.2,128.72c-.39,0-.7-.32-.7-.7s.32-.7.7-.7.7.32.7.7-.32.7-.7.7Z"/>
      <path class="cls-3" d="M77.37,133.54c-.18,0-.65,0-1.06-.29l-.23.15c-.19.13-.21.13-.27.13-.16,0-.16-.08-.16-.25v-.98c0-.21,0-.26.22-.26.13,0,.17,0,.22.13.11.39.34,1.04,1.3,1.04.2,0,1.03,0,1.03-.67,0-.53-.67-.65-1-.7-.69-.13-1.04-.18-1.4-.5-.18-.15-.36-.4-.36-.76,0-1.18,1.39-1.18,1.66-1.18.36,0,.67.05.91.17.35-.17.37-.17.41-.17.16,0,.16.08.16.25v.72c0,.21,0,.25-.22.25-.19,0-.2-.04-.21-.18-.04-.5-.39-.76-1.06-.76-.17,0-1.01,0-1.01.56,0,.42.58.52.92.58.7.12.99.17,1.34.43.31.25.5.57.5.95,0,1.31-1.39,1.31-1.67,1.31Z"/>
      <path class="cls-3" d="M81.4,133.54c-.64,0-1.42-.2-1.42-1.16v-2.47h-.74v-.32c.89-.03,1.33-.92,1.34-1.82h.42v1.72h1.31v.42h-1.31v2.48c0,.21,0,.78.52.78.25,0,.54-.22.54-.83v-.46h.42v.48c0,.66-.41,1.17-1.09,1.17Z"/>
      <path class="cls-3" d="M85.38,133.54c-1.45,0-2.35-.87-2.35-2.08,0-1.13.78-2.05,2.22-2.05.62,0,1.1.16,1.43.49.45.45.5,1.11.5,1.39,0,.24-.09.24-.29.24h-2.72c0,.46,0,1.66,1.28,1.66.58,0,1.1-.29,1.29-.72.05-.14.07-.19.23-.19.04,0,.22,0,.22.16,0,.15-.39,1.11-1.81,1.11ZM85.25,129.73c-.26,0-.62.11-.86.47-.19.3-.2.67-.22,1.03h2.15c0-.32-.03-1.49-1.08-1.49Z"/>
      <path class="cls-3" d="M91.55,133.46l-1.13.03v-.42h.62v-2.43c0-.68-.19-.87-.5-.87-.57,0-1.34.44-1.34,1.42v1.88h.62v.42l-1.13-.03-1.13.03v-.42h.62v-2.78c0-.35-.06-.35-.62-.35v-.42l1.55-.07v.97c.23-.46.71-.97,1.58-.97s1.39.35,1.39,1.3v2.33h.62v.42l-1.13-.03Z"/>
      <path class="cls-3" d="M95.14,133.54c-1.39,0-2.23-.86-2.23-2.05,0-1.04.67-2.08,2.28-2.08.52,0,1.57.05,1.57.83,0,.38-.29.57-.57.57-.24,0-.56-.17-.56-.57,0-.08.02-.27.18-.41-.12-.03-.27-.05-.58-.05-1.16,0-1.16,1.17-1.16,1.67,0,.41,0,1.74,1.25,1.74.46,0,.89-.17,1.12-.74.04-.12.05-.13.22-.13.09,0,.22,0,.22.13,0,.06-.27,1.11-1.73,1.11Z"/>
      <path class="cls-3" d="M99.47,133.54c-1.45,0-2.35-.87-2.35-2.08,0-1.13.78-2.05,2.22-2.05.62,0,1.1.16,1.43.49.45.45.5,1.11.5,1.39,0,.24-.09.24-.29.24h-2.72c0,.46,0,1.66,1.28,1.66.58,0,1.1-.29,1.29-.72.05-.14.07-.19.23-.19.04,0,.22,0,.22.16,0,.15-.39,1.11-1.81,1.11ZM99.34,129.73c-.26,0-.62.11-.86.47-.19.3-.2.67-.22,1.03h2.15c0-.32-.03-1.49-1.08-1.49Z"/>
    </g>
    <g>
      <path class="cls-3" d="M8.24,24.8c0-.37.05-1.21.49-1.8l-.41-.41c-.06-.07-.08-.09-.08-.17,0-.16.08-.16.25-.16h1.64c.21,0,.26,0,.26.22,0,.2-.04.2-.21.21-1.34.07-1.52,1.44-1.52,2.12,0,.94.62,1.17,1.05,1.17s.65-.22.78-.36c.19-.2.22-.35.39-1.14.22-.98.28-1.29.72-1.73.2-.19.61-.49,1.2-.49.95,0,1.81.65,1.81,2.02,0,.43-.08,1.02-.49,1.54l.4.41c.09.1.1.11.1.18,0,.16-.08.16-.25.16h-1.65c-.21,0-.25,0-.25-.22,0-.19.02-.19.23-.22,1.22-.21,1.53-1.12,1.53-1.84,0-.9-.56-1.15-.95-1.15-.55,0-.86.5-.94.86l-.28,1.31c-.17.82-.9,1.55-1.9,1.55-.91,0-1.93-.56-1.93-2.04Z"/>
      <path class="cls-3" d="M8.29,31.04h.7c-.7-.41-.7-1.06-.7-1.3,0-.89.2-1.62,1.16-1.62h2.1c.35,0,.35-.06.35-.62h.42l.07,1.65h-3.07c-.49,0-.71.03-.71.72s.48,1.12,1.21,1.12h1.72c.35,0,.35-.06.35-.62h.42l.07,1.65h-3.28c-.35,0-.35.06-.35.62h-.42l-.05-1.59Z"/>
      <path class="cls-3" d="M8.29,35.64c0-.8.49-1.24.56-1.31-.17-.14-.33-.3-.5-.44v-.42h5.4c.35,0,.35-.06.35-.62h.42l.07,1.59h-2.64c.18.22.44.67.44,1.32,0,1.31-.85,2.15-2.04,2.15s-2.06-.93-2.06-2.27ZM12.07,35.66c0-.5-.26-.93-.58-1.17h-2.26c-.13.09-.62.44-.62,1.07,0,.29.1.7.47.96.35.23.85.23,1.27.23.63,0,1.72,0,1.72-1.1Z"/>
      <path class="cls-3" d="M8.29,40c0-.18,0-.65.29-1.06l-.15-.23c-.13-.19-.13-.21-.13-.27,0-.16.08-.16.25-.16h.98c.21,0,.26,0,.26.22,0,.13,0,.17-.13.22-.39.11-1.04.34-1.04,1.3,0,.2,0,1.03.67,1.03.53,0,.65-.67.7-1,.13-.69.18-1.04.5-1.4.15-.18.4-.36.76-.36,1.18,0,1.18,1.39,1.18,1.66,0,.36-.05.67-.17.91.17.35.17.37.17.4,0,.16-.08.16-.25.16h-.72c-.21,0-.25,0-.25-.22,0-.19.04-.2.18-.21.5-.04.76-.39.76-1.06,0-.17,0-1.01-.56-1.01-.42,0-.52.58-.58.92-.12.7-.17.99-.43,1.34-.25.31-.57.5-.95.5-1.31,0-1.31-1.39-1.31-1.67Z"/>
      <path class="cls-3" d="M8.29,44.03c0-.64.2-1.42,1.16-1.42h2.47v-.74h.32c.03.89.92,1.33,1.82,1.34v.42h-1.72v1.31h-.42v-1.31h-2.49c-.21,0-.78,0-.78.52,0,.25.22.54.83.54h.46v.42h-.48c-.66,0-1.17-.41-1.17-1.09Z"/>
      <path class="cls-3" d="M8.34,50.11v-.43c0-.94.41-.94.69-.94-.38-.2-.75-.62-.75-1.34,0-.62.16-1.74,1.03-1.74,1.31,0,1.39,2.29,1.41,2.93h.31c.68,0,1.06-.32,1.06-.99,0-.11,0-.4-.06-.65-.02.03-.17.2-.44.2-.38,0-.57-.29-.57-.57,0-.24.17-.56.57-.56.79,0,.83,1.1.83,1.61,0,1.34-.58,1.98-1.39,1.98h-1.94c-.21,0-.32,0-.33.55,0,.12,0,.23-.21.23s-.22-.11-.22-.29ZM10.45,48.59c-.03-.45-.15-1.87-1.12-1.87-.4,0-.71.36-.71.82,0,.22.12,1.05.98,1.05h.86Z"/>
      <path class="cls-3" d="M8.37,54.47l-.03-1.13h.42v.62h2.43c.68,0,.87-.19.87-.5,0-.57-.44-1.34-1.42-1.34h-1.88v.62h-.42l.03-1.13-.03-1.13h.42v.62h2.78c.35,0,.35-.06.35-.62h.42l.07,1.55h-.97c.46.23.97.71.97,1.58s-.35,1.39-1.3,1.39h-2.33v.62h-.42l.03-1.13Z"/>
      <path class="cls-3" d="M8.29,58.06c0-1.39.86-2.23,2.05-2.23,1.04,0,2.08.67,2.08,2.28,0,.52-.05,1.57-.83,1.57-.38,0-.57-.29-.57-.57,0-.24.17-.56.57-.56.08,0,.27.02.41.18.03-.12.05-.27.05-.58,0-1.16-1.17-1.16-1.67-1.16-.41,0-1.74,0-1.74,1.25,0,.46.17.89.74,1.12.12.04.13.05.13.22,0,.09,0,.22-.12.22-.06,0-1.11-.27-1.11-1.73Z"/>
      <path class="cls-3" d="M8.29,62.39c0-1.45.87-2.35,2.08-2.35,1.13,0,2.05.78,2.05,2.22,0,.62-.16,1.1-.49,1.43-.45.45-1.11.5-1.39.5-.24,0-.24-.09-.24-.29v-2.72c-.46,0-1.66,0-1.66,1.28,0,.58.29,1.1.72,1.29.14.05.19.07.19.23,0,.04,0,.22-.16.22-.15,0-1.11-.39-1.11-1.81ZM12.09,62.27c0-.26-.11-.62-.47-.86-.3-.19-.68-.2-1.03-.22v2.15c.32,0,1.49-.03,1.49-1.08Z"/>
    </g>
    <g>
      <path class="cls-3" d="M8.24,100.52c0-2.24,1.34-3.62,3.19-3.62s3.19,1.38,3.19,3.62c0,.61-.16,1.21-.61,1.77l.53.59c.06.07.08.09.08.17,0,.16-.08.16-.25.16h-1.94c-.23,0-.25,0-.25-.24,0-.21.02-.22.19-.24,1.14-.2,1.83-1.05,1.83-2.03,0-.47-.1-1.25-.69-1.84-.59-.57-1.57-.59-2.07-.59-.81,0-1.49.11-2,.53-.55.47-.76,1.22-.76,1.93,0,.91.55,2,1.75,2.06.15,0,.15.09.15.21,0,.15,0,.22-.19.22-1.04,0-2.14-1.02-2.14-2.7Z"/>
      <path class="cls-3" d="M8.29,106.06c0-1.5.9-2.3,2.02-2.3,1.2,0,2.12.82,2.12,2.3s-.91,2.3-2.12,2.3c-1.11,0-2.02-.78-2.02-2.3ZM11.64,107.01c.32-.2.46-.58.46-.95,0-.44-.19-.82-.52-.99-.31-.15-.76-.15-1.17-.15-.78,0-1.76,0-1.76,1.14s.97,1.14,1.76,1.14c.43,0,.93,0,1.23-.19Z"/>
      <path class="cls-3" d="M8.37,115.6l-.03-1.13h.42v.62h2.43c.69,0,.87-.2.87-.5,0-.56-.44-1.34-1.42-1.34h-1.88v.62h-.42l.03-1.13-.03-1.13h.42v.62h2.43c.69,0,.87-.2.87-.5,0-.56-.44-1.34-1.42-1.34h-1.88v.62h-.42l.03-1.13-.03-1.13h.42v.62h2.78c.35,0,.35-.06.35-.62h.42l.07,1.55h-.97c.57.29.97.8.97,1.58,0,.34-.03,1.17-.87,1.35.41.23.87.7.87,1.52,0,.93-.37,1.39-1.3,1.39h-2.33v.62h-.42l.03-1.13Z"/>
      <path class="cls-3" d="M8.37,123.89l-.03-1.13h.42v.62h2.43c.69,0,.87-.2.87-.5,0-.56-.44-1.34-1.42-1.34h-1.88v.62h-.42l.03-1.13-.03-1.13h.42v.62h2.43c.69,0,.87-.2.87-.5,0-.56-.44-1.34-1.42-1.34h-1.88v.62h-.42l.03-1.13-.03-1.13h.42v.62h2.78c.35,0,.35-.06.35-.62h.42l.07,1.55h-.97c.57.29.97.8.97,1.58,0,.34-.03,1.17-.87,1.35.41.23.87.7.87,1.52,0,.93-.37,1.39-1.3,1.39h-2.33v.62h-.42l.03-1.13Z"/>
      <path class="cls-3" d="M8.29,128.55h.7c-.7-.41-.7-1.06-.7-1.3,0-.89.2-1.62,1.16-1.62h2.1c.35,0,.35-.06.35-.62h.42l.07,1.65h-3.07c-.49,0-.71.03-.71.72s.48,1.12,1.21,1.12h1.72c.35,0,.35-.06.35-.62h.42l.07,1.65h-3.28c-.35,0-.35.06-.35.62h-.42l-.05-1.59Z"/>
      <path class="cls-3" d="M8.37,134.43l-.03-1.13h.42v.62h2.43c.68,0,.87-.19.87-.5,0-.57-.44-1.34-1.42-1.34h-1.88v.62h-.42l.03-1.13-.03-1.13h.42v.62h2.78c.35,0,.35-.06.35-.62h.42l.07,1.55h-.97c.46.23.97.71.97,1.58s-.35,1.39-1.3,1.39h-2.33v.62h-.42l.03-1.13Z"/>
      <path class="cls-3" d="M8.37,136.96l-.03-1.1h.42v.62h2.78c.35,0,.35-.06.35-.59h.42l.07,1.57h-3.63v.56h-.42l.03-1.05ZM13.1,136.88c0-.39.31-.7.7-.7s.7.32.7.7-.32.7-.7.7-.7-.32-.7-.7Z"/>
      <path class="cls-3" d="M8.29,140.33c0-.64.2-1.42,1.16-1.42h2.47v-.74h.32c.03.89.92,1.33,1.82,1.34v.42h-1.72v1.31h-.42v-1.31h-2.49c-.21,0-.78,0-.78.52,0,.25.22.54.83.54h.46v.42h-.48c-.66,0-1.17-.41-1.17-1.09Z"/>
      <path class="cls-3" d="M11.73,145.94l-4.11-1.94c-.51-.24-1.07-.77-1.07-1.46,0-.54.37-.96.83-.96.35,0,.52.26.52.51,0,.31-.22.52-.51.52-.31,0-.44-.21-.48-.29-.03.07-.04.09-.04.22,0,.64.61.93,1.04,1.13l.43.21,3.57-1.68v-.58h.42l-.03,1.03.03,1.12h-.42v-.49l-2.43,1.14,2.21,1.04.11.04c.11,0,.11-.42.11-.42h.42l-.03.82c0,.22,0,.5.03.71h-.42c0-.58-.06-.6-.19-.67Z"/>
    </g>
    <g>
      <path class="cls-3" d="M47.01,72.05c0-.37.04-.93.23-1.32.3-.63.75-.63,1.34-.63.66,0,.83,0,1.14-.29.31-.28.31-.67.31-.8v-1.05h-2.5v.97h-.42c.03-.32.03-1.21.03-1.58s0-1.26-.03-1.58h.42v.97h5.33v-.97h.42v3.42c0,1.69-.76,2.68-1.67,2.68-.59,0-1.18-.46-1.45-1.5-.14.39-.42.88-1.05,1.01-.05,0-.67.08-.77.1-.38.04-1.02.13-1.02.67,0,.27.2.53.62.58.12,0,.21.02.21.21,0,.09,0,.22-.2.22-.14,0-.95-.12-.95-1.08ZM52.86,69.02v-1.06h-2.5v1.04c0,1.49.75,1.49,1.25,1.49.55,0,1.25-.02,1.25-1.47Z"/>
      <path class="cls-3" d="M47.05,75.48c0-1.45.87-2.35,2.08-2.35,1.13,0,2.05.78,2.05,2.22,0,.62-.16,1.1-.49,1.43-.45.45-1.11.5-1.39.5-.24,0-.24-.09-.24-.29v-2.72c-.46,0-1.66,0-1.66,1.28,0,.58.29,1.1.72,1.29.14.05.19.07.19.23,0,.04,0,.22-.16.22-.15,0-1.11-.39-1.11-1.81ZM50.86,75.35c0-.26-.11-.62-.47-.86-.3-.19-.68-.2-1.03-.22v2.15c.32,0,1.49-.03,1.49-1.08Z"/>
      <path class="cls-3" d="M47.13,78.78l-.03-1.11h.42v.62h4.98c.35,0,.35-.06.35-.62h.42l.07,1.59h-5.83v.62h-.42l.03-1.11Z"/>
      <path class="cls-3" d="M47.11,84.52v-.43c0-.94.41-.94.69-.94-.38-.2-.75-.62-.75-1.34,0-.62.16-1.74,1.03-1.74,1.31,0,1.39,2.29,1.41,2.93h.31c.68,0,1.06-.32,1.06-.99,0-.11,0-.4-.06-.65-.02.03-.17.2-.44.2-.38,0-.57-.29-.57-.57,0-.24.17-.56.57-.56.79,0,.83,1.1.83,1.61,0,1.34-.58,1.98-1.39,1.98h-1.94c-.21,0-.32,0-.33.55,0,.12,0,.23-.21.23s-.22-.11-.22-.29ZM49.21,83c-.03-.45-.15-1.87-1.12-1.87-.4,0-.71.36-.71.82,0,.22.12,1.05.98,1.05h.86Z"/>
      <path class="cls-3" d="M47.05,86.84c0-.64.2-1.42,1.16-1.42h2.47v-.74h.32c.03.89.92,1.33,1.82,1.34v.42h-1.72v1.31h-.42v-1.31h-2.49c-.21,0-.78,0-.78.52,0,.25.22.54.83.54h.46v.42h-.48c-.66,0-1.17-.41-1.17-1.09Z"/>
      <path class="cls-3" d="M47.13,89.7l-.03-1.1h.42v.62h2.78c.35,0,.35-.06.35-.59h.42l.07,1.57h-3.63v.56h-.42l.03-1.05ZM51.87,89.62c0-.39.31-.7.7-.7s.7.32.7.7-.32.7-.7.7-.7-.32-.7-.7Z"/>
      <path class="cls-3" d="M47.05,93.3c0-1.5.9-2.3,2.02-2.3,1.2,0,2.12.82,2.12,2.3s-.91,2.3-2.12,2.3c-1.11,0-2.02-.78-2.02-2.3ZM50.4,94.25c.32-.2.46-.58.46-.95,0-.44-.19-.82-.52-.99-.31-.15-.76-.15-1.17-.15-.78,0-1.76,0-1.76,1.14s.97,1.14,1.76,1.14c.43,0,.93,0,1.23-.19Z"/>
      <path class="cls-3" d="M47.13,99.96l-.03-1.13h.42v.62h2.43c.68,0,.87-.19.87-.5,0-.57-.44-1.34-1.42-1.34h-1.88v.62h-.42l.03-1.13-.03-1.13h.42v.62h2.78c.35,0,.35-.06.35-.62h.42l.07,1.55h-.97c.46.23.97.71.97,1.58s-.35,1.39-1.3,1.39h-2.33v.62h-.42l.03-1.13Z"/>
    </g>
    <g>
      <path class="cls-3" d="M28.99,67.73c0-2.24,1.34-3.62,3.19-3.62s3.19,1.38,3.19,3.62c0,.61-.16,1.21-.61,1.77l.53.59c.06.07.08.09.08.17,0,.16-.08.16-.25.16h-1.94c-.23,0-.25,0-.25-.24,0-.21.02-.22.19-.24,1.14-.2,1.83-1.05,1.83-2.03,0-.47-.1-1.25-.69-1.84-.59-.57-1.57-.59-2.07-.59-.81,0-1.49.11-2,.53-.55.47-.76,1.22-.76,1.93,0,.91.55,2,1.75,2.06.15,0,.15.09.15.21,0,.15,0,.22-.19.22-1.04,0-2.14-1.02-2.14-2.7Z"/>
      <path class="cls-3" d="M29.09,75.41v-.43c0-.94.41-.94.69-.94-.38-.2-.75-.62-.75-1.34,0-.62.16-1.74,1.03-1.74,1.31,0,1.39,2.29,1.41,2.93h.31c.68,0,1.06-.32,1.06-.99,0-.11,0-.4-.06-.65-.02.03-.17.2-.44.2-.38,0-.57-.29-.57-.57,0-.24.17-.56.57-.56.79,0,.83,1.1.83,1.61,0,1.34-.58,1.98-1.39,1.98h-1.94c-.21,0-.32,0-.33.55,0,.12,0,.23-.21.23s-.22-.11-.22-.29ZM31.19,73.89c-.03-.45-.15-1.87-1.12-1.87-.4,0-.71.36-.71.82,0,.23.12,1.05.98,1.05h.86Z"/>
      <path class="cls-3" d="M29.03,79.32h.7c-.7-.41-.7-1.06-.7-1.3,0-.89.2-1.62,1.16-1.62h2.1c.35,0,.35-.06.35-.62h.42l.07,1.65h-3.07c-.49,0-.71.03-.71.72s.48,1.12,1.21,1.12h1.72c.35,0,.35-.06.35-.62h.42l.07,1.65h-3.28c-.35,0-.35.06-.35.62h-.42l-.05-1.59Z"/>
      <path class="cls-3" d="M29.03,82.86c0-.18,0-.65.29-1.06l-.15-.23c-.13-.19-.13-.21-.13-.27,0-.16.08-.16.25-.16h.98c.21,0,.26,0,.26.22,0,.13,0,.17-.13.22-.39.11-1.04.34-1.04,1.3,0,.2,0,1.03.67,1.03.53,0,.65-.67.7-1,.13-.69.18-1.04.5-1.4.15-.18.4-.36.76-.36,1.18,0,1.18,1.39,1.18,1.66,0,.36-.05.67-.17.91.17.35.17.37.17.41,0,.16-.08.16-.25.16h-.72c-.21,0-.25,0-.25-.22,0-.19.04-.2.18-.21.5-.04.76-.39.76-1.06,0-.17,0-1.01-.56-1.01-.42,0-.52.58-.58.92-.12.7-.17.99-.43,1.34-.25.31-.57.5-.95.5-1.31,0-1.31-1.39-1.31-1.67Z"/>
      <path class="cls-3" d="M29.09,89.28v-.43c0-.94.41-.94.69-.94-.38-.2-.75-.62-.75-1.34,0-.62.16-1.74,1.03-1.74,1.31,0,1.39,2.29,1.41,2.93h.31c.68,0,1.06-.32,1.06-.99,0-.11,0-.4-.06-.65-.02.03-.17.2-.44.2-.38,0-.57-.29-.57-.57,0-.24.17-.56.57-.56.79,0,.83,1.1.83,1.61,0,1.34-.58,1.98-1.39,1.98h-1.94c-.21,0-.32,0-.33.55,0,.12,0,.23-.21.23s-.22-.11-.22-.29ZM31.19,87.76c-.03-.45-.15-1.87-1.12-1.87-.4,0-.71.36-.71.82,0,.23.12,1.05.98,1.05h.86Z"/>
      <path class="cls-3" d="M29.11,90.77l-.03-1.11h.42v.62h4.98c.35,0,.35-.06.35-.62h.42l.07,1.59h-5.83v.62h-.42l.03-1.11Z"/>
      <path class="cls-3" d="M29.11,93.3l-.03-1.1h.42v.62h2.78c.35,0,.35-.06.35-.59h.42l.07,1.57h-3.63v.56h-.42l.03-1.05ZM33.85,93.22c0-.39.31-.7.7-.7s.7.32.7.7-.32.7-.7.7-.7-.32-.7-.7Z"/>
      <path class="cls-3" d="M29.03,96.67c0-.64.2-1.42,1.16-1.42h2.47v-.74h.32c.03.89.92,1.33,1.82,1.34v.42h-1.72v1.31h-.42v-1.31h-2.49c-.21,0-.78,0-.78.52,0,.25.22.54.83.54h.46v.42h-.48c-.66,0-1.17-.41-1.17-1.09Z"/>
      <path class="cls-3" d="M32.47,102.28l-4.11-1.94c-.51-.24-1.07-.77-1.07-1.46,0-.54.37-.96.83-.96.35,0,.52.26.52.51,0,.31-.22.52-.51.52-.31,0-.44-.21-.48-.29-.03.07-.04.09-.04.22,0,.64.61.93,1.04,1.13l.43.21,3.57-1.68v-.58h.42l-.03,1.03.03,1.12h-.42v-.49l-2.43,1.14,2.21,1.04.11.04c.11,0,.11-.42.11-.42h.42l-.03.82c0,.22,0,.5.03.71h-.42c0-.58-.06-.6-.19-.67Z"/>
    </g>
    <g>
      <path class="cls-3" d="M153.77,134.03c0,.37-.04.93-.23,1.32-.31.63-.75.63-1.34.63-.66,0-.83,0-1.14.29-.31.28-.31.67-.31.8v1.05h2.5v-.97h.42c-.03.32-.03,1.21-.03,1.58s0,1.26.03,1.58h-.42v-.97h-5.33v.97h-.42v-3.42c0-1.69.76-2.68,1.67-2.68.59,0,1.18.46,1.45,1.5.14-.39.42-.88,1.05-1.01.04,0,.67-.08.77-.1.38-.04,1.02-.13,1.02-.67,0-.27-.2-.53-.62-.58-.12,0-.21-.02-.21-.21,0-.09,0-.22.2-.22.14,0,.95.12.95,1.08ZM147.92,137.06v1.06h2.5v-1.04c0-1.49-.75-1.49-1.25-1.49-.55,0-1.25.02-1.25,1.47Z"/>
      <path class="cls-3" d="M153.73,130.6c0,1.45-.87,2.35-2.08,2.35-1.13,0-2.05-.78-2.05-2.22,0-.62.16-1.1.49-1.43.45-.45,1.11-.5,1.39-.5.24,0,.24.09.24.29v2.72c.46,0,1.66,0,1.66-1.28,0-.58-.29-1.1-.72-1.29-.14-.05-.19-.07-.19-.23,0-.04,0-.22.16-.22.15,0,1.11.39,1.11,1.81ZM149.92,130.73c0,.26.11.62.47.86.3.19.68.2,1.03.22v-2.15c-.32,0-1.49.03-1.49,1.08Z"/>
      <path class="cls-3" d="M153.68,124.1v.43c0,.94-.41.94-.69.94.38.2.75.62.75,1.34,0,.62-.16,1.74-1.03,1.74-1.31,0-1.39-2.29-1.41-2.93h-.31c-.68,0-1.06.32-1.06.99,0,.11,0,.4.06.65.02-.03.17-.2.44-.2.38,0,.57.29.57.57,0,.24-.17.56-.57.56-.79,0-.83-1.1-.83-1.61,0-1.34.58-1.98,1.39-1.98h1.94c.21,0,.32,0,.33-.55,0-.12,0-.23.21-.23s.22.11.22.29ZM151.57,125.62c.03.45.15,1.87,1.12,1.87.4,0,.71-.36.71-.82,0-.23-.12-1.05-.98-1.05h-.86Z"/>
      <path class="cls-3" d="M153.65,122.6l.03,1.11h-.42v-.62h-4.98c-.35,0-.35.06-.35.62h-.42l-.07-1.59h5.82v-.62h.42l-.03,1.11Z"/>
      <path class="cls-3" d="M148.91,120.15c0,.39-.32.7-.7.7s-.7-.32-.7-.7.32-.7.7-.7.7.32.7.7ZM153.65,120.07l.03,1.1h-.42v-.62h-2.78c-.35,0-.35.06-.35.59h-.42l-.07-1.57h3.63v-.56h.42l-.03,1.05Z"/>
      <path class="cls-3" d="M153.73,116.71c0,.64-.2,1.42-1.16,1.42h-2.47v.74h-.32c-.03-.89-.92-1.33-1.82-1.34v-.42h1.72v-1.31h.42v1.31h2.48c.21,0,.78,0,.78-.52,0-.25-.22-.54-.83-.54h-.46v-.42h.48c.66,0,1.17.41,1.17,1.09Z"/>
      <path class="cls-3" d="M150.29,111.1l4.11,1.94c.51.24,1.07.77,1.07,1.46,0,.54-.37.96-.83.96-.35,0-.52-.26-.52-.51,0-.31.22-.52.51-.52.31,0,.44.21.48.29.03-.07.04-.09.04-.22,0-.64-.61-.93-1.04-1.13l-.43-.21-3.57,1.68v.58h-.42l.03-1.03-.03-1.12h.42v.49l2.43-1.14-2.21-1.04-.11-.04c-.11,0-.11.42-.11.42h-.42l.03-.82c0-.22,0-.5-.03-.71h.42c0,.58.06.6.19.67Z"/>
    </g>
    <g>
      <path class="cls-3" d="M153.68,58.66v5.16h-.42v-.97h-5.33v.97h-.42c.03-.34.03-1.25.03-1.65,0-.44,0-1.42-.03-1.82h.42v1.22h5.33v-.93c0-1.61-1.42-1.76-2.04-1.84v-.42l2.47.28Z"/>
      <path class="cls-3" d="M148.91,56.83c0,.39-.32.7-.7.7s-.7-.32-.7-.7.32-.7.7-.7.7.32.7.7ZM153.65,56.75l.03,1.1h-.42v-.62h-2.78c-.35,0-.35.06-.35.59h-.42l-.07-1.57h3.63v-.56h.42l-.03,1.05Z"/>
      <path class="cls-3" d="M153.65,48.45l.03,1.13h-.42v-.62h-2.43c-.69,0-.87.2-.87.5,0,.56.44,1.34,1.42,1.34h1.88v-.62h.42l-.03,1.13.03,1.13h-.42v-.62h-2.43c-.69,0-.87.2-.87.5,0,.56.44,1.34,1.42,1.34h1.88v-.62h.42l-.03,1.13.03,1.13h-.42v-.62h-2.78c-.35,0-.35.06-.35.62h-.42l-.07-1.55h.97c-.57-.29-.97-.8-.97-1.58,0-.34.03-1.17.86-1.35-.41-.23-.86-.7-.86-1.52,0-.93.37-1.39,1.3-1.39h2.33v-.62h.42l-.03,1.13Z"/>
      <path class="cls-3" d="M148.91,46.01c0,.39-.32.7-.7.7s-.7-.32-.7-.7.32-.7.7-.7.7.32.7.7ZM153.65,45.92l.03,1.1h-.42v-.62h-2.78c-.35,0-.35.06-.35.59h-.42l-.07-1.57h3.63v-.56h.42l-.03,1.05Z"/>
      <path class="cls-3" d="M153.73,42.56c0,.64-.2,1.42-1.16,1.42h-2.47v.74h-.32c-.03-.89-.92-1.33-1.82-1.34v-.42h1.72v-1.31h.42v1.31h2.48c.21,0,.78,0,.78-.52,0-.25-.22-.54-.83-.54h-.46v-.42h.48c.66,0,1.17.41,1.17,1.09Z"/>
      <path class="cls-3" d="M153.68,36.48v.43c0,.94-.41.94-.69.94.38.2.75.62.75,1.34,0,.62-.16,1.74-1.03,1.74-1.31,0-1.39-2.29-1.41-2.93h-.31c-.68,0-1.06.32-1.06.99,0,.11,0,.4.06.65.02-.03.17-.2.44-.2.38,0,.57.29.57.57,0,.24-.17.56-.57.56-.79,0-.83-1.1-.83-1.61,0-1.34.58-1.98,1.39-1.98h1.94c.21,0,.32,0,.33-.55,0-.12,0-.23.21-.23s.22.11.22.29ZM151.57,38c.03.45.15,1.87,1.12,1.87.4,0,.71-.36.71-.82,0-.22-.12-1.05-.98-1.05h-.86Z"/>
      <path class="cls-3" d="M153.73,34.17c0,.64-.2,1.42-1.16,1.42h-2.47v.74h-.32c-.03-.89-.92-1.33-1.82-1.34v-.42h1.72v-1.31h.42v1.31h2.48c.21,0,.78,0,.78-.52,0-.25-.22-.54-.83-.54h-.46v-.42h.48c.66,0,1.17.41,1.17,1.09Z"/>
      <path class="cls-3" d="M148.91,31.39c0,.39-.32.7-.7.7s-.7-.32-.7-.7.32-.7.7-.7.7.32.7.7ZM153.65,31.31l.03,1.1h-.42v-.62h-2.78c-.35,0-.35.06-.35.59h-.42l-.07-1.57h3.63v-.56h.42l-.03,1.05Z"/>
      <path class="cls-3" d="M153.73,27.71c0,1.5-.9,2.3-2.02,2.3-1.2,0-2.12-.82-2.12-2.3s.91-2.3,2.12-2.3c1.11,0,2.02.78,2.02,2.3ZM150.38,26.75c-.32.2-.46.58-.46.95,0,.44.19.82.52.99.31.15.77.15,1.17.15.78,0,1.76,0,1.76-1.14s-.97-1.14-1.76-1.14c-.43,0-.93,0-1.23.19Z"/>
      <path class="cls-3" d="M153.65,21.05l.03,1.13h-.42v-.62h-2.43c-.68,0-.87.19-.87.5,0,.57.44,1.34,1.42,1.34h1.88v-.62h.42l-.03,1.13.03,1.13h-.42v-.62h-2.78c-.35,0-.35.06-.35.62h-.42l-.07-1.55h.97c-.46-.23-.97-.71-.97-1.58s.35-1.39,1.3-1.39h2.33v-.62h.42l-.03,1.13Z"/>
    </g>
    <g>
      <path class="cls-3" d="M116.65,94.9c0,.84-.71,1.02-1.73,1.27.07.36.08.66.08.85,0,2.09-1.31,3.31-3.15,3.31s-3.22-1.25-3.22-3.31,1.28-3.3,3.22-3.3c.98,0,2.31.39,2.89,1.86.53-.35.53-.62.53-.83,0-.15,0-.71-.35-.76-.06,0-.18-.03-.18-.16,0-.16.16-.16.23-.16.61,0,1.67.32,1.67,1.23ZM109.94,95.41c-.76.43-.94,1.13-.94,1.62,0,.41.13,1.18,1,1.65.64.33,1.49.33,1.85.33.7,0,2.07-.03,2.6-1.13-.04.02-.14.03-.2.03-.43,0-.74-.41-.74-.87,0-.6.48-.93.78-1.13-.59-.86-1.94-.86-2.44-.86-.53,0-1.31.03-1.91.37ZM113.84,97.02c0,.3.17.56.41.56.11,0,.4-.06.4-.56,0-.24-.04-.51-.14-.74-.57.18-.67.49-.67.74Z"/>
      <path class="cls-3" d="M114.96,89.53h-.7c.7.41.7,1.06.7,1.3,0,.89-.2,1.62-1.16,1.62h-2.1c-.35,0-.35.06-.35.62h-.42l-.07-1.65h3.07c.49,0,.71-.03.71-.72s-.48-1.12-1.22-1.12h-1.72c-.35,0-.35.06-.35.62h-.42l-.07-1.65h3.28c.35,0,.35-.06.35-.62h.42l.05,1.59Z"/>
      <path class="cls-3" d="M114.91,83.32v.43c0,.94-.41.94-.69.94.38.2.75.62.75,1.34,0,.62-.16,1.74-1.03,1.74-1.31,0-1.39-2.29-1.41-2.93h-.31c-.68,0-1.06.32-1.06.99,0,.11,0,.4.06.65.02-.03.17-.2.44-.2.38,0,.57.29.57.57,0,.24-.17.56-.57.56-.79,0-.83-1.1-.83-1.61,0-1.34.58-1.98,1.39-1.98h1.94c.21,0,.32,0,.33-.55,0-.12,0-.23.21-.23s.22.11.22.29ZM112.8,84.84c.03.45.15,1.87,1.12,1.87.4,0,.71-.36.71-.82,0-.22-.12-1.05-.98-1.05h-.86Z"/>
      <path class="cls-3" d="M114.88,81.82l.03,1.11h-.42v-.62h-4.98c-.35,0-.35.06-.35.62h-.42l-.07-1.59h5.82v-.62h.42l-.03,1.11Z"/>
      <path class="cls-3" d="M110.15,79.38c0,.39-.32.7-.7.7s-.7-.32-.7-.7.32-.7.7-.7.7.32.7.7ZM114.88,79.3l.03,1.1h-.42v-.62h-2.78c-.35,0-.35.06-.35.59h-.42l-.07-1.57h3.63v-.56h.42l-.03,1.05Z"/>
      <path class="cls-3" d="M114.96,75.93c0,.64-.2,1.42-1.16,1.42h-2.47v.74h-.32c-.03-.89-.92-1.33-1.82-1.34v-.42h1.72v-1.31h.42v1.31h2.48c.21,0,.78,0,.78-.52,0-.25-.22-.54-.83-.54h-.46v-.42h.48c.66,0,1.17.41,1.17,1.09Z"/>
      <path class="cls-3" d="M111.52,70.32l4.11,1.94c.51.24,1.07.77,1.07,1.46,0,.54-.37.96-.83.96-.35,0-.52-.26-.52-.51,0-.31.22-.52.51-.52.31,0,.44.21.48.29.03-.07.04-.09.04-.22,0-.64-.61-.93-1.04-1.13l-.43-.21-3.57,1.68v.58h-.42l.03-1.03-.03-1.12h.42v.49l2.43-1.14-2.21-1.04-.11-.04c-.11,0-.11.42-.11.42h-.42l.03-.82c0-.22,0-.5-.03-.71h.42c0,.58.06.6.19.67Z"/>
    </g>
    <g>
      <path class="cls-3" d="M127.18,96.91c0,.25,0,.27.03.49.03.25.04.26.23.26h5.2c.21,0,.29,0,.29.24,0,.14,0,.15-.12.24l-5.28,4.48h4.71c.2,0,.21,0,.23-.27.02-.16.03-.32.03-.48v-.22h.42c-.03.37-.03.84-.03,1.21,0,.35,0,.86.03,1.21h-.42v-.22c0-.25,0-.27-.03-.49-.03-.25-.04-.26-.23-.26h-5.07v.97h-.42v-2.06c0-.19,0-.2.12-.3l4.21-3.58h-3.65c-.2,0-.21,0-.23.27-.02.16-.03.31-.03.48v.23h-.42c.03-.37.03-.84.03-1.22,0-.35,0-.86-.03-1.21h.42v.22Z"/>
      <path class="cls-3" d="M132.98,94.03c0,1.45-.87,2.35-2.08,2.35-1.13,0-2.05-.78-2.05-2.22,0-.62.16-1.1.49-1.43.45-.45,1.11-.5,1.39-.5.24,0,.24.09.24.29v2.72c.46,0,1.66,0,1.66-1.28,0-.58-.29-1.1-.72-1.29-.14-.05-.19-.07-.19-.23,0-.04,0-.22.16-.22.15,0,1.11.39,1.11,1.81ZM129.18,94.15c0,.26.11.62.47.86.3.19.68.2,1.03.22v-2.15c-.32,0-1.49.03-1.49,1.08Z"/>
      <path class="cls-3" d="M129.74,87.62c0,.23-.16.39-.39.39-.05,0-.13-.02-.18-.04,0,.1.03.29.17.56.14-.13.44-.36.87-.36.63,0,1.33.5,1.33,1.79,0,.23-.02.68-.23,1.1.07.05.21.09.3.09.16,0,.5-.1.57-.5,0-.04,0-.46,0-.69,0-.86,0-1.4.25-1.91.31-.6.87-.68,1.14-.68.63,0,1.16.7,1.16,2.3,0,1.8-.67,2.3-1.13,2.3-.57,0-.76-.66-.78-.77-.29.36-.73.4-.86.4-.19,0-.49-.05-.8-.31-.21.29-.58.47-.95.47-.63,0-1.33-.5-1.33-1.79,0-.67.19-1.04.3-1.21-.32-.4-.34-.82-.34-.95,0-.41.32-.57.52-.57s.39.15.39.39ZM129.2,89.96c0,.79.6.79,1.01.79s1.01,0,1.01-.79-.6-.79-1.01-.79-1.01,0-1.01.79ZM133.05,89.45v1.05c0,.13,0,.69.54.69.41,0,.83-.44.83-1.52,0-1.17-.49-1.52-.81-1.52-.56,0-.56,1.02-.56,1.3Z"/>
      <path class="cls-3" d="M132.93,82.68v.43c0,.94-.41.94-.69.94.38.2.75.62.75,1.34,0,.62-.16,1.74-1.03,1.74-1.31,0-1.39-2.29-1.41-2.93h-.31c-.68,0-1.06.32-1.06.99,0,.11,0,.4.06.65.02-.03.17-.2.44-.2.38,0,.57.29.57.57,0,.24-.17.56-.57.56-.79,0-.83-1.1-.83-1.61,0-1.34.58-1.98,1.39-1.98h1.94c.21,0,.32,0,.33-.55,0-.12,0-.23.21-.23s.22.11.22.29ZM130.82,84.2c.03.45.15,1.87,1.12,1.87.4,0,.71-.36.71-.82,0-.22-.12-1.05-.98-1.05h-.86Z"/>
      <path class="cls-3" d="M132.98,80.37c0,.64-.2,1.42-1.16,1.42h-2.47v.74h-.32c-.03-.89-.92-1.33-1.82-1.34v-.42h1.72v-1.31h.42v1.31h2.48c.21,0,.78,0,.78-.52,0-.25-.22-.54-.83-.54h-.46v-.42h.48c.66,0,1.17.41,1.17,1.09Z"/>
      <path class="cls-3" d="M128.17,77.59c0,.39-.32.7-.7.7s-.7-.32-.7-.7.32-.7.7-.7.7.32.7.7ZM132.9,77.5l.03,1.1h-.42v-.62h-2.78c-.35,0-.35.06-.35.59h-.42l-.07-1.57h3.63v-.56h.42l-.03,1.05Z"/>
      <path class="cls-3" d="M132.98,73.9c0,1.5-.9,2.3-2.02,2.3-1.2,0-2.12-.82-2.12-2.3s.91-2.3,2.12-2.3c1.11,0,2.02.78,2.02,2.3ZM129.63,72.95c-.32.2-.46.58-.46.95,0,.44.19.82.52.99.31.15.77.15,1.17.15.78,0,1.76,0,1.76-1.14s-.97-1.14-1.76-1.14c-.43,0-.93,0-1.23.19Z"/>
      <path class="cls-3" d="M132.9,67.24l.03,1.13h-.42v-.62h-2.43c-.68,0-.87.19-.87.5,0,.57.44,1.34,1.42,1.34h1.88v-.62h.42l-.03,1.13.03,1.13h-.42v-.62h-2.78c-.35,0-.35.06-.35.62h-.42l-.07-1.55h.97c-.46-.23-.97-.71-.97-1.58s.35-1.39,1.3-1.39h2.33v-.62h.42l-.03,1.13Z"/>
    </g>
  </g>
</svg>