<?xml version="1.0" encoding="UTF-8"?>
<svg id="Layer_2" data-name="Layer 2" xmlns="http://www.w3.org/2000/svg" viewBox="0 0 374.42 110.12">
  <defs>
    <style>
      .cls-1 {
        stroke-dasharray: 0 0 2.98 2.98;
      }

      .cls-1, .cls-2, .cls-3, .cls-4, .cls-5 {
        fill: none;
        stroke-linecap: round;
        stroke-linejoin: round;
      }

      .cls-1, .cls-2, .cls-5 {
        stroke: #808285;
      }

      .cls-6 {
        letter-spacing: -.03em;
      }

      .cls-7 {
        stroke-width: 0px;
      }

      .cls-7, .cls-8 {
        fill: #414042;
      }

      .cls-3, .cls-4 {
        stroke: #414042;
      }

      .cls-9 {
        letter-spacing: 0em;
      }

      .cls-4 {
        stroke-width: 2px;
      }

      .cls-10 {
        letter-spacing: -.03em;
      }

      .cls-5 {
        stroke-dasharray: 0 3;
      }

      .cls-8 {
        font-family: LMRoman10-Regular, 'Latin Modern Roman';
        font-size: 10.25px;
      }
    </style>
  </defs>
  <g id="Layer_3" data-name="Layer 3">
    <line class="cls-5" x1="286.09" y1="48.3" x2="338.81" y2="58.4"/>
    <g>
      <line class="cls-2" x1="124.62" y1="80.44" x2="126.02" y2="79.9"/>
      <polyline class="cls-1" points="128.8 78.84 200.84 51.33 283.1 48.4"/>
      <line class="cls-2" x1="284.59" y1="48.35" x2="286.09" y2="48.3"/>
    </g>
    <polyline class="cls-4" points="338.81 58.4 338.82 58.4 373.42 65.19 297.19 94.3 210.93 77.38 210.91 77.38 159.22 67.24 124.62 60.45 200.84 31.34 287.13 48.27 287.15 48.27"/>
    <polyline class="cls-4" points="287.13 48.27 373.42 45.19 338.82 58.4 297.19 74.3 210.91 77.38 124.62 80.45 159.22 67.24"/>
    <line class="cls-4" x1="204.4" y1="77.87" x2="204.4" y2="94.47"/>
    <g>
      <line class="cls-4" x1="204.4" y1="61.2" x2="204.4" y2="8.47"/>
      <polygon class="cls-7" points="204.4 0 209.28 11.94 204.4 9.11 199.53 11.94 204.4 0"/>
    </g>
    <ellipse class="cls-7" cx="204.4" cy="61.88" rx=".65" ry="3.5" transform="translate(101.61 249.08) rotate(-78.07)"/>
    <line class="cls-4" x1="284.62" y1="74.74" x2="284.62" y2="85.37"/>
    <line class="cls-4" x1="284.62" y1="91.83" x2="284.62" y2="109.12"/>
    <g>
      <line class="cls-4" x1="284.62" y1="64.63" x2="284.62" y2="23.12"/>
      <polygon class="cls-7" points="284.62 14.64 289.5 26.58 284.62 23.75 279.74 26.58 284.62 14.64"/>
    </g>
    <ellipse class="cls-7" cx="284.62" cy="85.77" rx=".65" ry="3.5" transform="translate(141.87 346.52) rotate(-78.07)"/>
    <ellipse class="cls-7" cx="284.62" cy="65.69" rx="3.5" ry=".65" transform="translate(-7.43 71.33) rotate(-14.1)"/>
    <text class="cls-8" transform="translate(22.39 62.08)"><tspan x="0" y="0">s</tspan><tspan class="cls-10" x="4.04" y="0">k</tspan><tspan class="cls-9" x="9.16" y="0">e</tspan><tspan class="cls-6" x="13.71" y="0">w</tspan><tspan x="20.82" y="0">ed</tspan><tspan x="-17.54" y="10.04">“insta</tspan><tspan class="cls-6" x="8.99" y="10.04">n</tspan><tspan class="cls-9" x="14.4" y="10.04">taneous</tspan><tspan class="cls-6" x="-1.3" y="20.09">w</tspan><tspan x="5.81" y="20.09">orlds”</tspan></text>
    <path class="cls-7" d="M5.35,87.31c-.24,0-2.31-2.35-3.76-6.79-1.33-4.08-1.59-8.45-1.59-11.27,0-3.03.29-7.05,1.52-11.02,1.42-4.59,3.59-7.05,3.83-7.05.14,0,.24.11.24.36,0,.11,0,.18-.31.61-2.96,4.52-3.88,10.8-3.88,17.09,0,5.53.77,12.36,3.78,16.91.41.61.41.69.41.79,0,.25-.1.36-.24.36Z"/>
    <path class="cls-7" d="M74.72,80.26c-1.42,4.59-3.59,7.05-3.83,7.05-.14,0-.24-.14-.24-.36,0-.11,0-.18.31-.61,2.99-4.55,3.88-10.91,3.88-17.09,0-7.55-1.37-13.3-3.73-16.87-.46-.65-.46-.72-.46-.83,0-.22.1-.36.24-.36.24,0,2.31,2.35,3.76,6.79,1.33,4.08,1.59,8.45,1.59,11.27,0,3.03-.29,7.05-1.52,11.02Z"/>
    <line class="cls-4" x1="210.9" y1="77.37" x2="286.13" y2="48.3"/>
    <g>
      <path class="cls-3" d="M120.06,60.42c-1.38,0-2.58.97-3.38,2.09-.8,1.12-1.31,2.42-2.09,3.56-1.54,2.24-4.02,3.69-6.62,4.48-2.6.79-5.33.99-8.04,1.19-4.91.35-10.45.76-15.46.25"/>
      <polygon class="cls-7" points="80.29 71.29 86.57 69.82 84.79 72 85.81 74.63 80.29 71.29"/>
    </g>
    <path class="cls-3" d="M103.79,71.39c2.26-.43,4.6.65,6.52,1.92s3.52,2.96,5.27,4.46,3.72,2.86,5.98,3.29"/>
  </g>
</svg>