<?xml version="1.0" encoding="UTF-8"?>
<svg id="Layer_2" data-name="Layer 2" xmlns="http://www.w3.org/2000/svg" viewBox="0 0 108.51 128.62">
  <defs>
    <style>
      .cls-1 {
        letter-spacing: .03em;
      }

      .cls-2, .cls-3 {
        stroke-width: 0px;
      }

      .cls-2, .cls-4, .cls-5, .cls-6 {
        fill: #414042;
      }

      .cls-7 {
        stroke-dasharray: 0 0 3.03 3.03;
      }

      .cls-7, .cls-8, .cls-9, .cls-10, .cls-11, .cls-12 {
        fill: none;
        stroke-linecap: round;
        stroke-linejoin: round;
      }

      .cls-7, .cls-8, .cls-9, .cls-10, .cls-12 {
        stroke: #808285;
      }

      .cls-3 {
        fill: #808285;
      }

      .cls-8 {
        stroke-dasharray: 0 0 3.11 3.11;
      }

      .cls-10 {
        stroke-dasharray: 0 0 3.08 3.08;
      }

      .cls-4 {
        font-size: 6.41px;
      }

      .cls-4, .cls-5, .cls-6 {
        font-family: LMRoman10-Bold, 'Latin Modern Roman';
        font-weight: 700;
      }

      .cls-11 {
        stroke: #414042;
        stroke-width: 1.3px;
      }

      .cls-5 {
        font-size: 8.21px;
      }

      .cls-6 {
        font-size: 7.47px;
      }

      .cls-12 {
        stroke-dasharray: 0 0 3.11 3.11;
      }
    </style>
  </defs>
  <g id="Layer_3" data-name="Layer 3">
    <g>
      <line class="cls-9" x1="9.97" y1="65.05" x2="11.41" y2="64.61"/>
      <line class="cls-7" x1="14.3" y1="63.72" x2="88.19" y2="41.04"/>
      <line class="cls-9" x1="89.64" y1="40.6" x2="91.07" y2="40.16"/>
      <polygon class="cls-3" points="94.44 39.12 90.29 42.52 90.82 40.23 89.09 38.64 94.44 39.12"/>
    </g>
    <g>
      <line class="cls-9" x1="40.96" y1="6.07" x2="18.35" y2="6.22"/>
      <polygon class="cls-3" points="14.82 6.24 19.78 4.18 18.61 6.22 19.8 8.24 14.82 6.24"/>
    </g>
    <g>
      <line class="cls-9" x1="76.2" y1="6.07" x2="101.76" y2="6.22"/>
      <polygon class="cls-3" points="105.29 6.24 100.3 8.24 101.49 6.22 100.33 4.18 105.29 6.24"/>
    </g>
    <g>
      <line class="cls-9" x1="9.97" y1="65.05" x2="11.46" y2="64.9"/>
      <line class="cls-12" x1="14.56" y1="64.59" x2="81.12" y2="58"/>
      <line class="cls-9" x1="82.66" y1="57.84" x2="84.16" y2="57.69"/>
      <polygon class="cls-3" points="87.67 57.35 82.92 59.86 83.89 57.72 82.52 55.81 87.67 57.35"/>
    </g>
    <g>
      <line class="cls-9" x1="9.97" y1="65.05" x2="11.46" y2="65.27"/>
      <line class="cls-8" x1="14.54" y1="65.72" x2="74.59" y2="74.53"/>
      <line class="cls-9" x1="76.13" y1="74.75" x2="77.61" y2="74.97"/>
      <polygon class="cls-3" points="81.1 75.48 75.89 76.77 77.35 74.93 76.48 72.75 81.1 75.48"/>
    </g>
    <g>
      <line class="cls-9" x1="9.97" y1="65.05" x2="11.34" y2="65.66"/>
      <line class="cls-10" x1="14.15" y1="66.93" x2="68.95" y2="91.55"/>
      <line class="cls-9" x1="70.36" y1="92.18" x2="71.72" y2="92.8"/>
      <polygon class="cls-3" points="74.94 94.24 69.57 94.06 71.48 92.69 71.24 90.35 74.94 94.24"/>
    </g>
    <g>
      <line class="cls-11" x1="10.53" y1="127.97" x2="10.53" y2="11.43"/>
      <polygon class="cls-2" points="10.53 5.93 13.7 13.69 10.53 11.85 7.36 13.69 10.53 5.93"/>
    </g>
    <text class="cls-5" transform="translate(0 97.19)"><tspan x="0" y="0">1</tspan></text>
    <text class="cls-5" transform="translate(79.95 97.97)"><tspan x="0" y="0">a</tspan></text>
    <text class="cls-5" transform="translate(86.51 79.47)"><tspan x="0" y="0">b</tspan></text>
    <text class="cls-5" transform="translate(93.82 60.13)"><tspan x="0" y="0">c</tspan></text>
    <text class="cls-5" transform="translate(99.57 41.13)"><tspan x="0" y="0">d</tspan></text>
    <text class="cls-5" transform="translate(0 67.52)"><tspan x="0" y="0">2</tspan></text>
    <text class="cls-5" transform="translate(0 37.19)"><tspan x="0" y="0">3</tspan></text>
    <circle class="cls-2" cx="10.53" cy="95.05" r="2.14"/>
    <circle class="cls-2" cx="10.53" cy="65.05" r="2.14"/>
    <circle class="cls-2" cx="10.53" cy="35.05" r="2.14"/>
    <g>
      <line class="cls-11" x1="64.86" y1="127.97" x2="106.27" y2="11.12"/>
      <polygon class="cls-2" points="108.11 5.93 108.51 14.3 106.14 11.51 102.53 12.18 108.11 5.93"/>
    </g>
    <circle class="cls-2" cx="76.44" cy="95.05" r="2.14"/>
    <circle class="cls-2" cx="83.12" cy="76.2" r="2.14"/>
    <circle class="cls-2" cx="89.8" cy="57.35" r="2.14"/>
    <circle class="cls-2" cx="96.48" cy="38.5" r="2.14"/>
    <text class="cls-6" transform="translate(25.44 49.09) rotate(-17.12)"><tspan x="0" y="0">co–tem</tspan><tspan class="cls-1" x="26.82" y="0">p</tspan><tspan x="31.83" y="0">oral</tspan><tspan x="7.35" y="7.32">ordering</tspan></text>
    <text class="cls-4" transform="translate(47.87 5.41)"><tspan x="0" y="0">spatial</tspan><tspan x="-2.97" y="5">ordering</tspan></text>
  </g>
</svg>