<?xml version="1.0" encoding="UTF-8"?>
<svg id="Layer_2" data-name="Layer 2" xmlns="http://www.w3.org/2000/svg" viewBox="0 0 121.2 133">
  <defs>
    <style>
      .cls-1, .cls-2, .cls-3, .cls-4 {
        fill: none;
        stroke-linecap: round;
        stroke-linejoin: round;
      }

      .cls-1, .cls-2, .cls-4 {
        stroke: #6d6e71;
      }

      .cls-5 {
        fill: #414042;
        stroke-width: 0px;
      }

      .cls-2 {
        stroke-dasharray: 0 0 3.83 3.83;
      }

      .cls-3 {
        stroke: #414042;
        stroke-width: 1.3px;
      }

      .cls-4 {
        stroke-dasharray: 0 0 3.84 3.84;
      }
    </style>
  </defs>
  <g id="Layer_3" data-name="Layer 3">
    <g>
      <line class="cls-1" x1="2.41" y1="46.06" x2="3.82" y2="47.47"/>
      <line class="cls-2" x1="6.53" y1="50.18" x2="53.93" y2="97.58"/>
      <polyline class="cls-1" points="55.29 98.93 56.7 100.35 58.11 98.93"/>
      <line class="cls-4" x1="60.83" y1="96.22" x2="108.39" y2="48.66"/>
      <line class="cls-1" x1="109.75" y1="47.3" x2="111.16" y2="45.88"/>
    </g>
    <g>
      <line class="cls-3" x1="56.7" y1="132.35" x2="56.7" y2="15.81"/>
      <polygon class="cls-5" points="56.7 10.31 59.87 18.07 56.7 16.23 53.53 18.07 56.7 10.31"/>
    </g>
    <g>
      <line class="cls-3" x1=".65" y1="124.47" x2="107.69" y2="78.41"/>
      <polygon class="cls-5" points="112.75 76.23 106.88 82.21 107.31 78.57 104.37 76.38 112.75 76.23"/>
    </g>
    <path class="cls-5" d="M118.8,77.82c-.66,0-1.22-.23-1.5-.64-.19.23-.61.64-1.22.64-.73,0-1.31-.43-1.31-1.06,0-.55.41-.93.86-.93.37,0,.6.25.6.55,0,.05,0,.59-.61.82.18.19.44.19.48.19.49,0,.79-.54.96-1.2l.38-1.56c.11-.43.26-1.05.26-1.31,0-.13,0-.59-.61-.59-.48,0-1.22.41-1.54,1.44-.06.17-.11.17-.35.17-.18,0-.34,0-.34-.17,0-.38.79-1.87,2.28-1.87.71,0,1.24.25,1.51.64.48-.56.95-.64,1.22-.64.71,0,1.31.42,1.31,1.06,0,.56-.42.94-.86.94-.37,0-.6-.25-.6-.55,0-.05,0-.59.61-.82-.19-.19-.43-.19-.49-.19-.48,0-.82.61-.92,1.07l-.65,2.66c-.04.14-.04.26-.04.34,0,.12,0,.59.61.59.52,0,1.24-.43,1.55-1.44.06-.17.11-.17.35-.17.18,0,.34,0,.34.17,0,.38-.79,1.87-2.29,1.87Z"/>
    <path class="cls-5" d="M56.86,7.81c-.72,0-1.4-.41-1.4-1.16,0-.07,0-.16.05-.35l.84-3.35h-.86c-.18,0-.38,0-.38-.22,0-.35.2-.35.42-.35h.97l.43-1.75c.14-.56.6-.64.76-.64.34,0,.54.23.54.5,0,.1-.13.62-.22.94l-.23.95h.85c.17,0,.37,0,.37.22,0,.35-.2.35-.41.35h-.96l-.89,3.54c-.05.19-.07.29-.07.52,0,.36.14.37.25.37.31,0,.9-.22,1.4-1.4.1-.19.11-.2.37-.2.18,0,.34,0,.34.17,0,.2-.79,1.87-2.17,1.87Z"/>
  </g>
</svg>